<?xml version="1.0" encoding="utf-8"?>
<!-- Generator: Adobe Illustrator 16.0.0, SVG Export Plug-In . SVG Version: 6.00 Build 0)  -->
<!DOCTYPE svg PUBLIC "-//W3C//DTD SVG 1.1//EN" "http://www.w3.org/Graphics/SVG/1.1/DTD/svg11.dtd">
<svg version="1.1" id="Layer_1" xmlns="http://www.w3.org/2000/svg" xmlns:xlink="http://www.w3.org/1999/xlink" x="0px" y="0px"
	 width="71px" height="100px" viewBox="0 0 71 100" enable-background="new 0 0 71 100" xml:space="preserve">
<path fill="#FFFFFF" d="M70,7.583H56.625V5.961c0-0.55-0.45-1-1-1H43.443V2c0-1.1-0.9-2-2-2H29.557c-1.1,0-2,0.9-2,2v2.961H15.375
	c-0.55,0-1,0.45-1,1v1.623H1c-0.55,0-1,0.45-1,1V99c0,0.55,0.45,1,1,1h69c0.55,0,1-0.45,1-1V8.583C71,8.034,70.55,7.583,70,7.583z
	 M35.5,2.319c1.094,0,1.98,0.887,1.98,1.98c0,1.094-0.888,1.981-1.98,1.981c-1.094,0-1.981-0.887-1.981-1.981
	C33.519,3.206,34.406,2.319,35.5,2.319z M63.495,92.395c0,0.551-0.45,1-1,1H8.505c-0.55,0-1-0.449-1-1V15.188c0-0.55,0.45-1,1-1
	h5.87v1.669c0,0.55,0.45,1,1,1h40.25c0.55,0,1-0.45,1-1v-1.669h5.87c0.55,0,1,0.45,1,1V92.395z"/>
<rect x="14.375" y="25.5" fill="#FFFFFF" width="38.125" height="2.375"/>
<rect x="14.375" y="31.625" fill="#FFFFFF" width="38.125" height="2.375"/>
<rect x="14.375" y="37.75" fill="#FFFFFF" width="29.125" height="2.375"/>
<rect x="14.375" y="50" fill="#FFFFFF" width="38.125" height="2.375"/>
<rect x="14.375" y="56.125" fill="#FFFFFF" width="38.125" height="2.375"/>
<rect x="14.375" y="62.25" fill="#FFFFFF" width="29.125" height="2.375"/>
<polygon fill="#FFFFFF" points="26.842,85.22 22.609,85.22 24.74,81.525 54.507,64.585 56.607,68.279 "/>
<rect x="54.89" y="64.709" transform="matrix(-0.4946 -0.8691 0.8691 -0.4946 28.1727 147.6376)" fill="#FFFFFF" width="4.249" height="1.835"/>
</svg>
