<?xml version="1.0" encoding="utf-8"?>
<!-- Generator: Adobe Illustrator 16.0.0, SVG Export Plug-In . SVG Version: 6.00 Build 0)  -->
<!DOCTYPE svg PUBLIC "-//W3C//DTD SVG 1.1//EN" "http://www.w3.org/Graphics/SVG/1.1/DTD/svg11.dtd">
<svg version="1.1" id="Calque_1" xmlns="http://www.w3.org/2000/svg" xmlns:xlink="http://www.w3.org/1999/xlink" x="0px" y="0px"
	 width="100px" height="100px" viewBox="0 0 100 100" enable-background="new 0 0 100 100" xml:space="preserve">
<path fill="#FFFFFF" d="M73.094,30.978c-1.322,3.332-3.512,6.166-6.263,8.169c3.079,0.872,5.912,2.164,8.358,3.835l-3.123,4.76
	c-3.795-2.596-8.899-4.024-14.377-4.024h-0.004c-5.789,0-11.284,1.648-15.076,4.525l-4.425-4.573
	c2.231-1.692,4.832-3.021,7.668-3.996c-3.855-2.1-6.322-5.144-7.502-8.08c-4.173,1.604-7.985,3.884-11.249,7.126H11.626l7.671,7.674
	c-1.515,1.332-2.807,2.91-3.763,4.704c-0.124,0.232-0.217,0.481-0.33,0.721c-1.73,2.091-7.047,8.065-11.31,8.065
	C1.742,59.884,0,62.341,0,65.37c0,2.1,0.847,3.901,2.077,4.821L2.05,70.336c0,0,4.317,1.964,11.372,3.534
	c2.228,1.021,6.653,5,15.584,8.722c0.181,0.076,0.378,0.104,0.562,0.167c0.234,0.113,0.465,0.229,0.701,0.336l-5.543,11.577h7.828
	l9.542-9.543c5.527-0.371,12.582-2.266,19.083-5.229c0.018-0.002,0.043,0.006,0.057,0.002c0.953-0.34,2.027-0.178,2.84,0.433
	c0.008,0.004,0.039-0.008,0.051-0.008l7.922,5.628l-6.229,8.717h11.209c0,0,17.216-13.42,19-17.999
	c2.873-4.253,3.275-7.911,3.275-7.911C102.462,49.382,89.718,36.148,73.094,30.978z"/>
<path fill="#FFFFFF" d="M50.497,38.353c1.929-0.394,3.946-0.612,6.022-0.612c0.004,0,0.006,0,0.006,0
	c1.844,0,3.646,0.18,5.389,0.497c3.744-2.057,6.283-6.038,6.283-10.613c0-6.685-5.42-12.105-12.104-12.105
	c-6.688,0-12.107,5.42-12.107,12.105C43.987,32.29,46.631,36.333,50.497,38.353z"/>
<path fill="#FFFFFF" d="M67.995,5.022c-4.843,1.003-8.49,4.589-9.804,9.022c0.004-0.002,0.009-0.004,0.014-0.004
	c7.011-1.453,13.875,3.056,15.327,10.069c0.452,2.172,0.302,4.324-0.292,6.31c0.004,0,0.008,0,0.012,0
	c7.016-1.453,11.521-8.315,10.068-15.328C81.87,8.08,75.012,3.571,67.995,5.022z"/>
</svg>
