<?xml version="1.0" standalone="no"?>
<!DOCTYPE svg PUBLIC "-//W3C//DTD SVG 1.1//EN" "http://www.w3.org/Graphics/SVG/1.1/DTD/svg11.dtd" >
<svg xmlns="http://www.w3.org/2000/svg">
<metadata></metadata>
<defs>
<font id="HelveticaInseratLTStdRegular" horiz-adv-x="1024" >
<font-face units-per-em="2048" ascent="1636" descent="-412" />
<missing-glyph horiz-adv-x="512" />
<glyph horiz-adv-x="0" />
<glyph horiz-adv-x="2048" />
<glyph unicode=" "  horiz-adv-x="512" />
<glyph unicode="&#x09;" horiz-adv-x="512" />
<glyph unicode="&#xa0;" horiz-adv-x="512" />
<glyph unicode="!" horiz-adv-x="684" d="M172 0v377h340v-377h-340zM172 997v639h340v-639l-78 -524h-184z" />
<glyph unicode="&#x22;" d="M156 1059v577h290v-577h-290zM578 1059v577h290v-577h-290z" />
<glyph unicode="#" d="M-2 446v242h182l31 268h-152v242h183l49 412h235l-49 -412h166l49 412h234l-52 -412h152v-242h-182l-31 -268h152v-242h-183l-51 -446h-231l53 446h-168l-53 -446h-236l54 446h-152zM414 688h168l32 268h-165z" />
<glyph unicode="$" d="M57 1221q0 182 101 291.5t268 123.5v148h168v-148q189 -14 274 -123q78 -102 78 -296v-105h-340v109q0 137 -104 137q-39 0 -65.5 -34.5t-26.5 -84.5q0 -45 30.5 -91.5t80 -89.5t109 -90.5t118.5 -104.5t108.5 -121t80 -150.5t30.5 -183.5q0 -373 -373 -435v-147h-168 v147q-158 0 -262.5 98.5t-104.5 286.5v185h340v-129q0 -34 1 -51.5t6.5 -42.5t16 -37t31.5 -21.5t52 -9.5q96 0 96 154q0 54 -30 106t-78 96.5t-106 90.5t-116.5 99.5t-106.5 112.5t-78 139t-30 171z" />
<glyph unicode="%" horiz-adv-x="1820" d="M190 1024v362q0 250 289 250q285 0 285 -250v-362q0 -250 -285 -250q-289 0 -289 250zM420 1024q0 -35 11.5 -52.5t47.5 -17.5q34 0 45 18t11 52v362q0 34 -11 52t-45 18q-36 0 -47.5 -17.5t-11.5 -52.5v-362zM598 -53l434 1716h191l-428 -1716h-197zM1057 223v363 q0 250 289 250q284 0 284 -250v-363q0 -250 -284 -250q-289 0 -289 250zM1286 223q0 -34 12 -51.5t48 -17.5q34 0 44.5 17.5t10.5 51.5v363q0 34 -10.5 51.5t-44.5 17.5q-36 0 -48 -17.5t-12 -51.5v-363z" />
<glyph unicode="&#x26;" horiz-adv-x="1366" d="M94 463q0 74 32.5 162t103.5 177t165 136q-33 54 -49 83.5t-41 81.5t-36 98.5t-11 92.5q0 161 105.5 251.5t269.5 90.5q79 0 145.5 -18t118.5 -54.5t81.5 -98.5t29.5 -144q0 -120 -66.5 -231t-171.5 -189l143 -258q3 -4 20 45.5t33.5 117t16.5 103.5h289 q-14 -157 -63 -308.5t-136 -252.5l193 -348h-363l-51 100q-64 -62 -153.5 -94.5t-182.5 -32.5q-84 0 -151 21.5t-110.5 53.5t-75 79.5t-47.5 90t-25 95t-11 84t-2 66.5zM422 444q0 -69 42.5 -124.5t110.5 -55.5q75 0 150 64l-193 360q-60 -68 -85 -118t-25 -126zM561 1311 q0 -19 10 -46.5t19.5 -46t26 -46t18.5 -31.5q28 27 44 44.5t33 51t17 66.5q0 92 -82 92q-86 0 -86 -84z" />
<glyph unicode="'" horiz-adv-x="569" d="M139 1059v577h291v-577h-291z" />
<glyph unicode="(" horiz-adv-x="681" d="M145 248v891q8 215 127.5 349.5t329.5 147.5v-180q-29 0 -52 -7.5t-37.5 -18t-25 -32t-15.5 -37.5t-7.5 -46.5t-3 -48.5t-0.5 -54v-1038q0 -28 0.5 -43t3 -42t7.5 -42.5t15.5 -35t25 -30.5t37.5 -18.5t52 -7.5v-180q-205 34 -328 152.5t-129 320.5z" />
<glyph unicode=")" horiz-adv-x="681" d="M80 -45q29 0 52 7.5t37.5 18.5t25 30.5t15.5 35t7.5 42.5t3 42t0.5 43v1038q0 36 -0.5 54t-3 48.5t-7.5 46.5t-15.5 37.5t-25 32t-37.5 18t-52 7.5v180q210 -13 329.5 -147.5t127.5 -349.5v-891q-6 -202 -129 -320.5t-328 -152.5v180z" />
<glyph unicode="*" horiz-adv-x="796" d="M80 1186l186 112l-182 115l76 139l168 -122l-13 206h172l-14 -204l172 118l72 -137l-191 -113l191 -112l-82 -129l-162 115l16 -213h-167l6 213l-162 -119z" />
<glyph unicode="+" horiz-adv-x="1228" d="M96 520v291h373v373h291v-373h373v-291h-373v-373h-291v373h-373z" />
<glyph unicode="," horiz-adv-x="512" d="M86 0v377h340v-352q0 -71 -55.5 -160.5t-94.5 -97.5h-190q130 110 168 233h-168z" />
<glyph unicode="-" horiz-adv-x="681" d="M72 541v303h538v-303h-538z" />
<glyph unicode="." horiz-adv-x="512" d="M86 0v377h340v-377h-340z" />
<glyph unicode="/" horiz-adv-x="569" d="M-84 -27l446 1690h291l-446 -1690h-291z" />
<glyph unicode="0" d="M61 383v844q0 190 117 299.5t334 109.5q215 0 333 -109.5t118 -299.5v-844q0 -191 -117 -300.5t-334 -109.5q-215 0 -333 110t-118 300zM426 356q0 -59 23 -81.5t63 -22.5q39 0 62.5 22.5t23.5 81.5v897q0 105 -86 105q-40 0 -63 -22.5t-23 -82.5v-897z" />
<glyph unicode="1" d="M104 1208v230q63 3 121 19.5t111 56t72 96.5h307v-1610h-353v1208h-258z" />
<glyph unicode="2" d="M43 0v100q4 111 26.5 207t56.5 166.5t77.5 131t90 108.5t92.5 92t87.5 87t73.5 88.5t50.5 103t18.5 122.5q0 33 -3 56.5t-13 47t-31 36t-53 12.5t-53 -12.5t-31 -36t-13 -47t-3 -56.5v-162h-340v127q12 242 118.5 353.5t344.5 111.5q213 0 327.5 -108t114.5 -320 q0 -88 -19.5 -162.5t-54 -131.5t-77 -107t-93.5 -97.5t-98.5 -92.5t-98 -104t-85.5 -120q-12 -21 -21 -45q-11 -27 -16 -45h551v-303h-926z" />
<glyph unicode="3" d="M49 389v154h352v-168q0 -54 23 -88.5t76 -34.5q98 0 98 123v114q0 73 -8.5 114.5t-34.5 70t-69.5 38.5t-118.5 11v266h63q63 0 109.5 33.5t46.5 91.5v133q0 111 -86 111q-92 0 -92 -119v-102h-351q-13 250 82 366q108 133 367 133q213 0 328.5 -94t115.5 -313 q0 -66 -6 -112.5t-24 -95t-55.5 -85.5t-94.5 -64q60 -20 100 -57.5t59.5 -90.5t26.5 -105.5t7 -122.5q0 -105 -12.5 -183.5t-44 -144.5t-83 -107.5t-131 -64.5t-186.5 -23q-218 0 -337.5 103.5t-119.5 312.5z" />
<glyph unicode="4" d="M39 305v338q95 201 159 469.5t76 497.5h379q-23 -248 -135 -514.5t-272 -499.5h264v221q69 96 129 226t86 243h137v-690h123v-291h-123v-305h-352v305h-471z" />
<glyph unicode="5" d="M49 389v141h352v-155q0 -54 23 -88.5t76 -34.5q98 0 98 123v352q0 123 -98 123q-53 0 -76 -34.5t-23 -88.5h-315v883h825v-303h-522v-242h4q42 32 98 47.5t95 15.5q194 0 285.5 -104t91.5 -289v-227q0 -130 -22.5 -225t-74.5 -166.5t-141.5 -107.5t-218.5 -36 q-218 0 -337.5 103.5t-119.5 312.5z" />
<glyph unicode="6" d="M61 383v844q0 190 117 299.5t334 109.5q207 0 316.5 -98.5t109.5 -314.5h-328q0 67 -22.5 101t-75.5 34t-75.5 -34t-22.5 -101v-183l4 -4q42 56 85.5 74t119.5 18q98 0 165.5 -31.5t104 -92.5t52.5 -133t18 -171v-317q0 -191 -117 -300.5t-334 -109.5q-215 0 -333 110 t-118 300zM426 356q0 -59 23 -81.5t63 -22.5q39 0 62.5 22.5t23.5 81.5v389q0 105 -86 105q-40 0 -63 -22.5t-23 -82.5v-389z" />
<glyph unicode="7" d="M25 1307v303h938v-273q-56 -92 -89 -157q-107 -207 -177.5 -479.5t-88.5 -520.5q-1 -5 -12 -180h-389q2 63 14 172q27 248 106 483t208 500q63 128 75 152h-585z" />
<glyph unicode="8" d="M61 383v135q0 34 0.5 53t4 53.5t10 57t20.5 52.5t33 51t49 42.5t68 36.5q-47 19 -81.5 50t-52.5 66.5t-27 69t-11 66.5v111q0 28 0.5 45t4.5 52.5t11 60t22.5 59.5t36.5 59.5t55 51.5t76 43t101.5 27t130.5 11t130.5 -11t101.5 -27t76 -43t55 -51.5t36.5 -59.5 t22.5 -59.5t11 -60t4.5 -52.5t0.5 -45v-111q-2 -72 -44 -142.5t-134 -109.5q53 -18 89 -45t56 -55.5t30.5 -72t13 -79.5t2.5 -94v-135q0 -191 -117 -300.5t-334 -109.5q-215 0 -333 110t-118 300zM426 356q0 -59 23 -81.5t63 -22.5q39 0 62.5 22.5t23.5 81.5v260 q0 105 -86 105q-40 0 -63 -22.5t-23 -82.5v-260zM426 1104q0 -60 23 -82.5t63 -22.5q86 0 86 105v149q0 105 -86 105q-40 0 -63 -22.5t-23 -82.5v-149z" />
<glyph unicode="9" d="M61 909v318q0 190 117 299.5t334 109.5q215 0 333 -109.5t118 -299.5v-844q0 -191 -117 -300.5t-334 -109.5q-207 0 -316.5 98.5t-109.5 315.5h328q0 -67 22.5 -101t75.5 -34t75.5 34t22.5 101v182l-4 4q-42 -56 -85.5 -74t-119.5 -18q-98 0 -165.5 31.5t-104 92.5 t-52.5 133t-18 171zM426 864q0 -59 23.5 -81.5t62.5 -22.5q40 0 63 22.5t23 81.5v389q0 60 -23 82.5t-63 22.5q-86 0 -86 -105v-389z" />
<glyph unicode=":" horiz-adv-x="512" d="M86 0v377h340v-377h-340zM86 813v377h340v-377h-340z" />
<glyph unicode=";" horiz-adv-x="512" d="M86 0v377h340v-352q0 -71 -55.5 -160.5t-94.5 -97.5h-190q130 110 168 233h-168zM86 813v377h340v-377h-340z" />
<glyph unicode="&#x3c;" horiz-adv-x="1228" d="M96 520v291l1037 389v-315l-627 -217v-4l627 -218v-315z" />
<glyph unicode="=" horiz-adv-x="1228" d="M96 266v291h1037v-291h-1037zM96 774v291h1037v-291h-1037z" />
<glyph unicode="&#x3e;" horiz-adv-x="1228" d="M96 131v315l627 218v4l-627 217v315l1037 -389v-291z" />
<glyph unicode="?" d="M78 1118v137q0 182 120 295t324 113q212 0 332.5 -98t120.5 -297q0 -74 -23 -139.5t-60 -115t-82 -96t-90 -93.5t-82 -96.5t-60 -115t-23 -139.5h-266v92q0 95 34.5 178t83.5 142.5t98 115t83.5 120t34.5 132.5q0 78 -24 123t-91 45q-59 0 -87 -52.5t-28 -137.5v-113 h-315zM250 0v377h340v-377h-340z" />
<glyph unicode="@" horiz-adv-x="1802" d="M72 815q0 178 68.5 336.5t185 270t276.5 176.5t338 65q120 0 236 -30.5t216 -90.5t176 -141.5t119.5 -191t43.5 -232.5q0 -107 -24 -200t-63.5 -158.5t-91.5 -118.5t-105 -86t-107.5 -55t-96.5 -31t-74 -9q-65 0 -102.5 29.5t-38.5 83.5h-6q-83 -113 -217 -113 q-148 0 -261.5 121.5t-113.5 288.5q0 134 55.5 252t162 193t239.5 75q180 0 278 -133l21 109h213l-99 -541q-14 -63 -14 -76q0 -21 14 -34t41 -13q31 0 60 15t59 50.5t48 107t18 171.5q0 177 -76.5 303t-208.5 188t-307 62q-186 0 -328 -83t-217.5 -228.5t-75.5 -331.5 q0 -293 182.5 -465t475.5 -172q247 0 428 137h223q-122 -167 -293 -254.5t-377 -87.5q-179 0 -341 63t-280.5 173t-188.5 267.5t-70 338.5zM696 766q0 -82 46 -137.5t126 -55.5q103 0 170.5 72t67.5 172q0 84 -51.5 137.5t-134.5 53.5q-95 0 -159.5 -74.5t-64.5 -167.5z" />
<glyph unicode="A" horiz-adv-x="1138" d="M14 0l303 1636h500l307 -1636h-395l-35 291h-264l-39 -291h-377zM469 582h188l-88 800h-4z" />
<glyph unicode="B" horiz-adv-x="1138" d="M84 0v1636h522q210 0 309 -89t99 -296q0 -57 -4 -100.5t-16.5 -91t-34.5 -82t-60.5 -64t-91.5 -47.5v-4q133 -24 190.5 -119t57.5 -258q0 -485 -437 -485h-534zM461 279h78q89 0 114 46.5t25 176.5q0 49 -4.5 83.5t-17 68.5t-40 51.5t-69.5 17.5h-86v-444zM461 989h69 q35 0 59.5 10.5t38.5 27t22 43t10 51t2 59.5q0 91 -25.5 134.5t-91.5 43.5h-84v-369z" />
<glyph unicode="C" horiz-adv-x="1138" d="M84 446v744q0 231 133 352t352 121q220 0 353 -121t133 -352v-152h-377v185q0 24 -0.5 37.5t-6.5 37.5t-16.5 38t-32.5 25t-53 11q-26 0 -45.5 -6.5t-31 -20.5t-18.5 -26.5t-9.5 -33.5t-3 -31.5t-0.5 -30.5v-809q0 -20 0.5 -33t6 -38t16 -39.5t32.5 -27t53 -12.5t53 12 t32.5 27.5t16.5 40t6.5 37.5t0.5 33v239h377v-207q0 -218 -131 -345.5t-355 -127.5t-354.5 127.5t-130.5 345.5z" />
<glyph unicode="D" horiz-adv-x="1138" d="M84 0v1636h561q94 0 166 -22t117.5 -59.5t74.5 -94t40.5 -120t11.5 -142.5v-778q0 -108 -35.5 -191t-95.5 -131.5t-130.5 -73t-148.5 -24.5h-561zM461 279h59q158 0 158 139v801q0 139 -158 139h-59v-1079z" />
<glyph unicode="E" d="M84 0v1636h838v-315h-461v-326h403v-315h-403v-365h479v-315h-856z" />
<glyph unicode="F" horiz-adv-x="909" d="M84 0v1636h786v-315h-409v-326h366v-315h-366v-680h-377z" />
<glyph unicode="G" horiz-adv-x="1138" d="M84 446v744q0 231 133 352t352 121q80 0 149 -12t132.5 -41t107.5 -74t70.5 -115t26.5 -159v-183h-359v164q0 129 -118 129q-35 0 -60 -15.5t-36.5 -40.5t-16 -47.5t-4.5 -45.5v-809q0 -20 0.5 -33t6 -38t16 -39.5t32.5 -27t53 -12.5q63 0 92 30t29 93v211h-133v303h498 v-901h-330v133h-4q-51 -83 -121 -121.5t-170 -38.5q-79 0 -139.5 26t-99 69t-63 105t-34.5 128.5t-10 144.5z" />
<glyph unicode="H" horiz-adv-x="1138" d="M84 0v1636h377v-612h217v612h377v-1636h-377v696h-217v-696h-377z" />
<glyph unicode="I" horiz-adv-x="569" d="M96 0v1636h377v-1636h-377z" />
<glyph unicode="J" d="M49 408v239h365v-278q0 -24 1.5 -38.5t8 -32t22 -26t39.5 -8.5q33 0 55.5 25t22.5 82v1265h377v-1228q0 -223 -113.5 -329t-341.5 -106q-44 0 -83.5 4.5t-84.5 17t-82.5 32.5t-73 53.5t-59.5 78t-38.5 108t-14.5 141.5z" />
<glyph unicode="K" horiz-adv-x="1138" d="M84 0v1636h365v-669h6l250 669h399l-313 -678l315 -958h-401l-168 586l-88 -135v-451h-365z" />
<glyph unicode="L" horiz-adv-x="909" d="M84 0v1636h377v-1321h409v-315h-786z" />
<glyph unicode="M" horiz-adv-x="1593" d="M94 0v1636h594l107 -811h4l106 811h594v-1636h-364v1272h-5l-210 -1272h-246l-211 1272h-4v-1272h-365z" />
<glyph unicode="N" horiz-adv-x="1251" d="M84 0v1636h412l303 -964h4v964h364v-1636h-409l-305 1012h-4v-1012h-365z" />
<glyph unicode="O" horiz-adv-x="1138" d="M84 446v744q0 231 133 352t352 121q220 0 353 -121t133 -352v-744q0 -218 -131 -345.5t-355 -127.5t-354.5 127.5t-130.5 345.5zM461 414q0 -20 0.5 -33t6 -38t16 -39.5t32.5 -27t53 -12.5t53 12t32.5 27.5t16.5 40t6.5 37.5t0.5 33v809q0 24 -0.5 37.5t-6.5 37.5 t-16.5 38t-32.5 25t-53 11q-26 0 -45.5 -6.5t-31 -20.5t-18.5 -26.5t-9.5 -33.5t-3 -31.5t-0.5 -30.5v-809z" />
<glyph unicode="P" horiz-adv-x="1138" d="M84 0v1636h403q94 0 163 -5t133.5 -18.5t108 -37.5t79.5 -60.5t57 -89.5t32 -123.5t11 -162.5q0 -65 -6 -120t-21.5 -113t-44.5 -102.5t-71.5 -80.5t-107 -55t-146.5 -19h-213v-649h-377zM461 940h94q86 0 112.5 44.5t26.5 162.5q0 42 -4.5 73.5t-10.5 53t-20.5 35.5 t-25.5 21.5t-36.5 11t-41.5 4t-51 0.5h-43v-406z" />
<glyph unicode="Q" horiz-adv-x="1138" d="M84 446v744q0 231 133 352t352 121q220 0 353 -121t133 -352v-744q0 -271 -213 -405l145 -236l-305 -30q-22 46 -111 198q-225 0 -356 127.5t-131 345.5zM461 414q0 -20 0.5 -33t6 -38t16 -39.5t32.5 -27t53 -12.5t53 12t32.5 27.5t16.5 40t6.5 37.5t0.5 33v809 q0 24 -0.5 37.5t-6.5 37.5t-16.5 38t-32.5 25t-53 11q-26 0 -45.5 -6.5t-31 -20.5t-18.5 -26.5t-9.5 -33.5t-3 -31.5t-0.5 -30.5v-809z" />
<glyph unicode="R" horiz-adv-x="1138" d="M84 0v1636h498q256 0 366.5 -88.5t110.5 -306.5q0 -64 -4.5 -108.5t-18 -90t-38.5 -77t-66.5 -58.5t-100.5 -45v-4q101 -21 160.5 -89.5t59.5 -170.5v-289q0 -174 10 -232q10 -53 29 -77h-373q-20 24 -30 83.5t-11.5 104t-1.5 121.5v262q0 72 -33 104t-111 32h-69v-707 h-377zM461 985h92q31 0 54 6t37 21t22 28.5t11.5 41t4 44.5t0.5 52q0 32 -0.5 47t-3 38.5t-8 34t-16 25t-26 20.5t-39 10.5t-54.5 4.5h-74v-373z" />
<glyph unicode="S" horiz-adv-x="1138" d="M70 379v176h364v-121q0 -36 5 -64t18.5 -53.5t39.5 -39t64 -13.5q62 0 96.5 35.5t34.5 91.5q0 47 -19 89.5t-65.5 87.5t-78.5 70.5t-103 76.5q-7 5 -11 8t-10.5 7.5t-11.5 8.5q-16 13 -56 45t-56.5 46t-49.5 44.5t-47.5 50.5t-36.5 54t-32 65t-17.5 72.5t-7.5 87.5 q0 459 481 459q239 0 355 -108t116 -304v-147h-352v88q0 36 -4 63.5t-15.5 56.5t-36.5 44.5t-63 15.5q-60 0 -94.5 -33t-34.5 -90q0 -33 21.5 -68.5t69 -79t85.5 -73t107 -81.5q21 -15 31 -23q21 -19 60.5 -50.5t63.5 -52t57 -54t53.5 -67.5t40 -79.5t29 -103t9.5 -126.5 q0 -51 -15 -104.5t-52.5 -110.5t-93.5 -101.5t-147 -73t-204 -28.5q-107 0 -193 26t-140 67.5t-89.5 96.5t-50 108.5t-14.5 107.5z" />
<glyph unicode="T" horiz-adv-x="909" d="M23 1321v315h864v-315h-244v-1321h-377v1321h-243z" />
<glyph unicode="U" horiz-adv-x="1138" d="M84 446v1190h377v-1194v-37.5t2 -33t6 -32t12 -25t19 -21.5t28.5 -12t40.5 -5q32 0 53.5 10t32 22t16 38.5t6.5 43.5t1 52v1194h377v-1190q0 -218 -131 -345.5t-355 -127.5t-354.5 127.5t-130.5 345.5z" />
<glyph unicode="V" d="M14 1636h385l103 -1163h4l125 1163h379l-279 -1636h-467z" />
<glyph unicode="W" horiz-adv-x="1705" d="M31 1636h387l133 -1163h4l121 1163h366l115 -1163h4l135 1163h379l-286 -1636h-420l-111 1008h-4l-125 -1008h-420z" />
<glyph unicode="X" horiz-adv-x="1138" d="M20 0l318 883l-299 753h405l129 -465h5l131 465h391l-301 -766l319 -870h-395l-160 528h-4l-147 -528h-392z" />
<glyph unicode="Y" d="M16 1636h390l104 -553h4l111 553h383l-308 -962v-674h-376v647z" />
<glyph unicode="Z" d="M37 0v305l530 1016h-508v315h928v-305l-534 -1016h534v-315h-950z" />
<glyph unicode="[" horiz-adv-x="681" d="M160 -225v1861h458v-204h-143v-1452h143v-205h-458z" />
<glyph unicode="\" horiz-adv-x="569" d="M-84 1663h291l446 -1690h-291z" />
<glyph unicode="]" horiz-adv-x="681" d="M63 -20h144v1452h-144v204h459v-1861h-459v205z" />
<glyph unicode="^" horiz-adv-x="1228" d="M96 862l332 748h373l332 -748h-328l-191 488l-192 -488h-326z" />
<glyph unicode="_" d="M0 -154h1024v-102h-1024v102z" />
<glyph unicode="`" horiz-adv-x="569" d="M6 1704h324l90 -279h-191z" />
<glyph unicode="a" d="M80 373q0 71 16 129t39.5 96t61.5 70.5t71 51t78 38.5q16 7 48 19.5t48 19.5t42.5 19.5t40.5 22.5t31.5 26.5t26 32.5t15 38.5t6.5 48.5q0 56 -17.5 82.5t-64.5 26.5q-90 0 -90 -90v-107h-328v119q0 144 115.5 231.5t298.5 87.5q234 0 330 -96.5t96 -312.5v-926h-323v100 h-5q-39 -59 -106.5 -93t-142.5 -34q-63 0 -111 14.5t-78.5 43t-50.5 62.5t-30 83t-13.5 93.5t-3.5 103.5zM444 295q0 -105 78 -105q40 0 61 32.5t21 82.5v352l-98 -71q-62 -47 -62 -117v-174z" />
<glyph unicode="b" d="M80 0v1636h352v-446h4q40 76 99 110.5t153 34.5q127 0 191.5 -86t64.5 -245v-639q0 -185 -69 -288.5t-193 -103.5q-86 0 -150 41.5t-96 116.5h-4v-131h-352zM432 453q0 -37 0.5 -58t5 -55t13.5 -52.5t27 -33t44 -14.5q70 0 70 86v663q0 37 -21.5 58.5t-48.5 21.5 q-90 0 -90 -166v-450z" />
<glyph unicode="c" d="M80 346v617q0 51 10.5 98.5t40.5 98.5t76.5 88.5t125 62t179.5 24.5t179.5 -24.5t125 -62t76.5 -88.5t40.5 -98.5t10.5 -98.5v-140h-352v164q0 24 -1.5 37t-8 32t-24.5 28.5t-46 9.5t-46 -9.5t-24.5 -28.5t-8 -32t-1.5 -37v-665q0 -24 1.5 -37t8 -32t24.5 -28.5t46 -9.5 t46 9.5t24.5 28.5t8 32t1.5 37v235h352v-211q0 -51 -10.5 -98.5t-40.5 -99t-76.5 -89t-125 -62t-179.5 -24.5t-179.5 24.5t-125 62t-76.5 89t-40.5 99t-10.5 98.5z" />
<glyph unicode="d" d="M80 365v639q0 159 64.5 245t191.5 86q94 0 153 -34.5t99 -110.5h4v446h352v-1636h-352v131h-4q-32 -75 -96 -116.5t-150 -41.5q-124 0 -193 103.5t-69 288.5zM432 326q0 -86 70 -86q26 0 44 14.5t27 33t13.5 52.5t5 55t0.5 58v450q0 166 -90 166q-27 0 -48.5 -21.5 t-21.5 -58.5v-663z" />
<glyph unicode="e" d="M80 346v617q0 51 10.5 98.5t40.5 98.5t76.5 88.5t125 62t179.5 24.5t179.5 -24.5t125 -62t76.5 -88.5t40.5 -98.5t10.5 -98.5v-361h-512v-280q0 -24 1.5 -37t8 -32t24.5 -28.5t46 -9.5t46 9.5t24.5 28.5t8 32t1.5 37v163h352v-139q0 -51 -10.5 -98.5t-40.5 -99t-76.5 -89 t-125 -62t-179.5 -24.5t-179.5 24.5t-125 62t-76.5 89t-40.5 99t-10.5 98.5zM432 844h160v143q0 24 -1.5 37t-8 32t-24.5 28.5t-46 9.5t-46 -9.5t-24.5 -28.5t-8 -32t-1.5 -37v-143z" />
<glyph unicode="f" horiz-adv-x="569" d="M23 1040v254h83v95q0 49 8.5 87t22 64t37.5 44t47 28t58 15.5t64 7t71 1.5h133v-229h-35q-38 0 -52 -16.5t-14 -49.5v-47h101v-254h-88v-1040h-353v1040h-83z" />
<glyph unicode="g" d="M80 438v486q0 55 4 100t14 94.5t30.5 86.5t50.5 67.5t76 46.5t105 16q90 0 144 -43t94 -129h4v146h342v-1155q0 -112 -25.5 -187.5t-80 -120.5t-132 -64.5t-190.5 -19.5q-387 0 -418 279h340q0 -47 21 -68q16 -16 57 -16q37 0 57.5 23.5t20.5 66.5v232l-4 4 q-27 -75 -91.5 -115.5t-150.5 -40.5q-116 0 -192 84t-76 227zM432 477q0 -50 20.5 -73t51.5 -23q88 0 88 186v340q0 84 -26.5 123t-61.5 39q-72 0 -72 -96v-496z" />
<glyph unicode="h" d="M80 0v1636h352v-448h4q46 75 105.5 111t150.5 36q122 0 187 -78t65 -202v-1055h-352v895q0 20 -0.5 31.5t-4.5 32t-12 32t-24 20.5t-39 9q-80 0 -80 -125v-895h-352z" />
<glyph unicode="i" horiz-adv-x="569" d="M109 0v1309h352v-1309h-352zM109 1395v241h352v-241h-352z" />
<glyph unicode="j" horiz-adv-x="569" d="M8 20q20 -4 33 -4q68 0 68 78v1215h352v-1174q0 -66 -5 -114t-22.5 -97t-47.5 -79.5t-82 -50t-124 -19.5h-172v245zM109 1395v241h352v-241h-352z" />
<glyph unicode="k" d="M80 0v1636h352v-1636h-352zM442 719l193 590h360l-204 -574l210 -735h-360z" />
<glyph unicode="l" horiz-adv-x="569" d="M109 0v1636h352v-1636h-352z" />
<glyph unicode="m" horiz-adv-x="1593" d="M96 0v1309h340v-162h4q54 98 114 143t161 45q92 0 157 -45.5t86 -142.5q30 52 51 81t53.5 56.5t75 39t101.5 11.5q124 0 191 -77t67 -203v-1055h-352v879q0 17 -0.5 27.5t-2.5 29.5t-7.5 31.5t-14.5 26t-24.5 20t-36.5 6.5q-86 0 -86 -141v-879h-352v879q0 17 -0.5 27.5 t-2.5 29.5t-7.5 31.5t-14.5 26t-24.5 20t-36.5 6.5q-86 0 -86 -141v-879h-353z" />
<glyph unicode="n" d="M80 0v1309h340v-146h4q50 88 110.5 130t157.5 42q122 0 187 -78t65 -202v-1055h-352v895q0 20 -0.5 31.5t-4.5 32t-12 32t-24 20.5t-39 9q-80 0 -80 -125v-895h-352z" />
<glyph unicode="o" d="M80 346v617q0 51 10.5 98.5t40.5 98.5t76.5 88.5t125 62t179.5 24.5t179.5 -24.5t125 -62t76.5 -88.5t40.5 -98.5t10.5 -98.5v-617q0 -51 -10.5 -98.5t-40.5 -99t-76.5 -89t-125 -62t-179.5 -24.5t-179.5 24.5t-125 62t-76.5 89t-40.5 99t-10.5 98.5zM432 322 q0 -24 1.5 -37t8 -32t24.5 -28.5t46 -9.5t46 9.5t24.5 28.5t8 32t1.5 37v665q0 24 -1.5 37t-8 32t-24.5 28.5t-46 9.5t-46 -9.5t-24.5 -28.5t-8 -32t-1.5 -37v-665z" />
<glyph unicode="p" d="M80 -225v1534h352v-119h4q40 76 99 110.5t153 34.5q127 0 191.5 -86t64.5 -245v-639q0 -185 -69 -288.5t-193 -103.5q-86 0 -150 41.5t-96 116.5h-4v-356h-352zM432 453q0 -37 0.5 -58t5 -55t13.5 -52.5t27 -33t44 -14.5q70 0 70 86v663q0 37 -21.5 58.5t-48.5 21.5 q-90 0 -90 -166v-450z" />
<glyph unicode="q" d="M80 365v639q0 159 64.5 245t191.5 86q94 0 153 -34.5t99 -110.5h4v119h352v-1534h-352v356h-4q-32 -75 -96 -116.5t-150 -41.5q-124 0 -193 103.5t-69 288.5zM432 326q0 -86 70 -86q26 0 44 14.5t27 33t13.5 52.5t5 55t0.5 58v450q0 166 -90 166q-27 0 -48.5 -21.5 t-21.5 -58.5v-663z" />
<glyph unicode="r" horiz-adv-x="681" d="M80 0v1309h334v-232h4q3 8 10 25q18 45 28.5 69t33 61t44.5 55.5t57.5 33t78.5 14.5v-426h-82q-156 0 -156 -166v-743h-352z" />
<glyph unicode="s" horiz-adv-x="909" d="M49 326v86h316v-80q0 -117 90 -117q77 0 77 96q0 30 -11.5 56.5t-40.5 55.5t-48.5 45.5t-68 51.5t-66.5 49q-52 40 -87 72.5t-73 81t-57 107.5t-19 128q0 181 108 279t286 98q391 0 391 -344v-69h-316v69q0 103 -75 103q-78 0 -78 -88q0 -30 14 -57.5t41.5 -53t55 -46.5 t66.5 -50t64 -51q46 -35 73 -57.5t63.5 -61t56.5 -74.5t34.5 -87.5t14.5 -109.5q0 -29 -2 -55t-11.5 -67t-25 -74.5t-46.5 -70t-72 -61.5t-105 -41t-143 -16q-114 0 -194 24.5t-126 72t-66 110t-20 146.5z" />
<glyph unicode="t" horiz-adv-x="569" d="M18 1040v254h88v285h353v-285h88v-254h-88v-700q0 -100 47 -100h45v-267h-170q-50 0 -87.5 4.5t-74.5 19.5t-60.5 40.5t-38 68.5t-14.5 103v831h-88z" />
<glyph unicode="u" d="M80 254v1055h352v-895q0 -20 0.5 -31.5t4.5 -32t12 -32t24 -20.5t39 -9q80 0 80 125v895h352v-1309h-340v145h-4q-50 -88 -110.5 -130t-157.5 -42q-121 0 -186.5 78.5t-65.5 202.5z" />
<glyph unicode="v" horiz-adv-x="909" d="M10 1309h363l82 -838h4l88 838h352l-240 -1309h-411z" />
<glyph unicode="w" horiz-adv-x="1478" d="M18 1309h367l98 -920h4l95 920h329l80 -920h4l113 920h352l-252 -1309h-370l-101 870h-4l-88 -870h-371z" />
<glyph unicode="x" d="M25 0l294 678l-278 631h387l90 -346h4l92 346h375l-272 -631l282 -678h-385l-98 395h-4l-109 -395h-378z" />
<glyph unicode="y" horiz-adv-x="909" d="M10 1309h361l88 -920h4l90 920h346l-229 -1198q-20 -100 -45 -164t-64 -103q-42 -42 -109.5 -62t-179.5 -20h-163v254h79q60 0 60 47q0 35 -23 148z" />
<glyph unicode="z" horiz-adv-x="909" d="M51 0v266l414 764h-402v279h795v-267l-428 -763h428v-279h-807z" />
<glyph unicode="{" horiz-adv-x="681" d="M-10 596v217q29 0 56.5 5t61.5 18t55 44.5t21 77.5v373q0 154 77 229.5t200 75.5h231v-204h-84q-35 0 -58.5 -12.5t-33.5 -35t-13 -41.5t-3 -45v-391q-1 -56 -25 -96.5t-62.5 -61t-74.5 -29.5t-74 -11v-4q24 -2 40.5 -3.5t43 -7.5t45 -15t40 -25t35 -37.5t23 -54.5 t9.5 -73v-376q0 -20 1.5 -35.5t8 -35t17.5 -32t31.5 -21.5t49.5 -9h84v-205h-231q-123 0 -200 74.5t-77 228.5v373q0 37 -15 65t-35.5 43t-49.5 23.5t-50 11t-44 2.5z" />
<glyph unicode="|" horiz-adv-x="454" d="M82 -512v2048h291v-2048h-291z" />
<glyph unicode="}" horiz-adv-x="681" d="M-10 -20h86q29 0 49.5 9t31.5 21.5t17.5 32t8 35t1.5 35.5v376q0 40 9.5 73t23 54.5t35 37.5t40 25t45 15t43 7.5t40.5 3.5v4q-38 2 -74 11t-74.5 29.5t-62.5 61t-25 96.5v391q0 26 -3 45t-13 41.5t-33.5 35t-58.5 12.5h-86v204h233q123 0 200 -75.5t77 -229.5v-373 q0 -37 14.5 -65t35.5 -43t49.5 -23.5t49.5 -11t43 -2.5v-217q-22 0 -43 -2.5t-49.5 -11t-49.5 -23.5t-35.5 -43t-14.5 -65v-373q0 -154 -77 -228.5t-200 -74.5h-233v205z" />
<glyph unicode="~" horiz-adv-x="1228" d="M141 707q92 176 256 176q81 0 228 -66q19 -8 56 -25.5t58 -26.5t48.5 -17.5t46.5 -8.5q29 0 54.5 12t50 39t37.5 45t38 56l73 -266q-23 -32 -38.5 -52t-41 -46.5t-49.5 -41t-57 -25.5t-70 -11q-85 0 -208 67q-41 23 -71 37t-75.5 26.5t-89.5 12.5q-61 0 -101 -42 t-71 -110z" />
<glyph unicode="&#xa1;" horiz-adv-x="684" d="M172 -225v639l78 524h184l78 -524v-639h-340zM172 1034v377h340v-377h-340z" />
<glyph unicode="&#xa2;" d="M80 346v617q0 152 94 249q96 100 246 123v160h180v-160q123 -19 211 -86q133 -99 133 -286v-140h-352v164q0 24 -1.5 37t-8 32t-24.5 28.5t-46 9.5t-46 -9.5t-24.5 -28.5t-8 -32t-1.5 -37v-665q0 -24 1.5 -37t8 -32t24.5 -28.5t46 -9.5t46 9.5t24.5 28.5t8 32t1.5 37v235 h352v-211q0 -188 -133 -287q-80 -61 -211 -86v-159h-180v159q-150 23 -246 123q-94 97 -94 250z" />
<glyph unicode="&#xa3;" d="M41 676v180h135q-53 110 -79.5 195t-26.5 186q0 83 25 150t68 113t102 77t125 45t140 14q216 0 323.5 -108.5t107.5 -310.5v-80h-328v67q0 154 -103 154q-96 0 -96 -113q0 -61 14 -124t37 -139.5t33 -125.5h268v-180h-249q0 -205 -172 -387q49 0 120.5 -10.5t98.5 -10.5 q36 0 59 26.5t30 56.5t7 61h303v-88q0 -162 -96 -256.5t-258 -94.5q-71 0 -201.5 27t-191.5 27q-100 0 -185 -43l15 311q48 13 82.5 44.5t52 75.5t25 88.5t7.5 94.5q0 45 -8 78h-184z" />
<glyph unicode="&#xa4;" d="M49 465l98 98q-88 118 -88 268q0 139 84 263l-94 94l103 102l94 -94q120 86 266 86t266 -86l94 94l103 -102l-96 -94q86 -120 86 -263q0 -144 -86 -264l96 -94l-103 -102l-96 94q-117 -86 -264 -86q-141 0 -260 82l-100 -99zM301 831q0 -103 60.5 -169t150.5 -66 q89 0 150 66t61 169q0 101 -61 167.5t-150 66.5q-90 0 -150.5 -66t-60.5 -168z" />
<glyph unicode="&#xa5;" d="M41 1610h377l92 -553h4l113 553h356l-209 -707h205v-180h-264l-21 -76v-84h285v-180h-285v-383h-364v383h-281v180h281v58l-21 102h-260v180h205z" />
<glyph unicode="&#xa6;" horiz-adv-x="454" d="M82 -358v716h291v-716h-291zM82 768v614h291v-614h-291z" />
<glyph unicode="&#xa7;" d="M53 780q0 86 41.5 163.5t110.5 131.5v4q-9 0 -28 30t-36.5 80.5t-17.5 96.5q0 174 112.5 275.5t284.5 101.5q207 0 305.5 -100.5t98.5 -309.5h-316v62q0 119 -94 119q-36 0 -62 -31t-26 -70q0 -46 30 -85t78 -69.5t106 -61.5t116.5 -68.5t106.5 -81.5t78 -109.5 t30 -144.5q0 -89 -35 -169t-100 -138q50 -56 72 -111.5t22 -126.5q0 -179 -115.5 -276t-298.5 -97q-201 0 -308.5 103.5t-107.5 306.5h316v-39q0 -23 4.5 -46.5t15 -48t30.5 -40t48 -15.5q46 0 73 30.5t27 76.5q0 44 -31 81t-80.5 66t-109.5 59t-119.5 69t-109 88 t-80.5 124.5t-31 169.5zM307 821q0 -32 39 -69t89.5 -65.5t116.5 -67.5t101 -68q17 10 34.5 36t17.5 50q0 67 -84 115q-210 123 -269 176q-1 -2 -10 -16t-11 -18.5t-8.5 -16.5t-8.5 -19t-4.5 -17.5t-2.5 -19.5z" />
<glyph unicode="&#xa8;" horiz-adv-x="569" d="M4 1438v266h229v-266h-229zM336 1438v266h229v-266h-229z" />
<glyph unicode="&#xa9;" horiz-adv-x="1802" d="M25 817q0 185 68 343.5t185.5 268.5t278.5 172t344 62t344.5 -62t279 -172t185.5 -268.5t68 -343.5q0 -184 -68.5 -342.5t-186.5 -268t-279 -171.5t-343 -62t-343 62t-278.5 171t-186 268t-68.5 343zM291 817q0 -171 79 -308.5t218.5 -215.5t312.5 -78q170 0 310 79 t220 217t80 306q0 169 -79.5 307.5t-219.5 217.5t-311 79q-173 0 -313 -78.5t-218.5 -216.5t-78.5 -309zM463 825q0 216 127.5 352t339.5 136q162 0 269 -93t132 -253h-205q-28 141 -196 141q-96 0 -154.5 -78t-58.5 -201q0 -66 24 -129.5t75.5 -109t119.5 -45.5 q78 0 131 38.5t59 112.5h213q-23 -162 -132 -259t-271 -97q-209 0 -341 137t-132 348z" />
<glyph unicode="&#xaa;" horiz-adv-x="665" d="M41 1059q0 52 14.5 92t42.5 66.5t53.5 41.5t63.5 31q14 5 51.5 17.5t52.5 19t37 19.5t30.5 30t8.5 39q0 66 -65 66q-30 0 -47 -15.5t-17 -40.5v-55h-217v76q0 93 77 141.5t204 48.5q165 0 230 -57t65 -188v-555h-222v59h-4q-63 -76 -182 -76q-48 0 -82 13.5t-52 33.5 t-28 54.5t-12 64t-2 74.5zM270 1004q0 -18 3.5 -28.5t12.5 -15t16 -5.5t22 -1q34 0 52.5 19.5t18.5 44.5v213q-96 -52 -116 -74q-9 -23 -9 -41v-112z" />
<glyph unicode="&#xab;" d="M90 680l207 289h266l-213 -289l207 -297h-266zM461 680l205 289h268l-213 -289l207 -297h-266z" />
<glyph unicode="&#xac;" horiz-adv-x="1228" d="M96 774v291h1037v-672h-291v381h-746z" />
<glyph unicode="&#xad;" horiz-adv-x="681" d="M72 541v303h538v-303h-538z" />
<glyph unicode="&#xae;" horiz-adv-x="1802" d="M25 817q0 185 68 343.5t185.5 268.5t278.5 172t344 62t344.5 -62t279 -172t185.5 -268.5t68 -343.5q0 -184 -68.5 -342.5t-186.5 -268t-279 -171.5t-343 -62t-343 62t-278.5 171t-186 268t-68.5 343zM291 817q0 -171 79 -308.5t218.5 -215.5t312.5 -78q170 0 310 79 t220 217t80 306q0 169 -79.5 307.5t-219.5 217.5t-311 79q-173 0 -313 -78.5t-218.5 -216.5t-78.5 -309zM543 362v910h344q95 0 162 -12.5t118.5 -42.5t77 -84.5t25.5 -135.5q0 -120 -59.5 -177t-159.5 -62l233 -396h-264l-209 388h-39v-388h-229zM772 905h131q65 0 95 24 t30 91q0 31 -12 51.5t-35.5 29.5t-45 12t-52.5 3h-111v-211z" />
<glyph unicode="&#xaf;" horiz-adv-x="569" d="M-16 1454v156h602v-156h-602z" />
<glyph unicode="&#xb0;" horiz-adv-x="819" d="M70 1309q0 136 98 231.5t242 95.5t242 -95.5t98 -231.5t-98 -232t-242 -96t-242 96t-98 232zM238 1309q0 -76 49 -130.5t123 -54.5t123 54.5t49 130.5t-49 130t-123 54t-123 -54t-49 -130z" />
<glyph unicode="&#xb1;" horiz-adv-x="1228" d="M96 123v291h1037v-291h-1037zM96 709v290h373v209h291v-209h373v-290h-373v-209h-291v209h-373z" />
<glyph unicode="&#xb2;" horiz-adv-x="665" d="M25 655v60q4 85 27 155t56 117t72.5 86.5t78 72.5t70 65.5t51 74.5t19.5 92q0 27 -3.5 44t-18 31.5t-41.5 14.5q-40 0 -53 -24t-13 -66v-94h-229v74q8 146 78 212t231 66q138 0 214.5 -64.5t76.5 -191.5q0 -72 -24 -130t-65 -100.5t-84 -78.5t-92.5 -83.5t-80.5 -96.5 q-23 -38 -25 -55h359v-181h-604z" />
<glyph unicode="&#xb3;" horiz-adv-x="665" d="M33 889v90h229v-98q0 -74 66 -74q63 0 63 74v67q0 86 -28.5 114.5t-120.5 29.5v155h41q40 0 70 20t30 56v80q0 33 -10 49t-45 16q-33 0 -47.5 -15t-14.5 -54v-66h-229q-8 151 58.5 227t236.5 76q141 0 217 -56t76 -187q0 -79 -26 -131t-97 -82q131 -42 131 -219 q0 -160 -68 -241t-233 -81q-142 0 -220.5 62.5t-78.5 187.5z" />
<glyph unicode="&#xb4;" horiz-adv-x="569" d="M150 1425l96 279h317l-217 -279h-196z" />
<glyph unicode="&#xb5;" d="M80 -225v1534h352v-895q0 -20 0.5 -31.5t4.5 -32t12 -32t24 -20.5t39 -9q80 0 80 125v895h352v-1309h-340v145h-4q-80 -140 -180 -159v-211h-340z" />
<glyph unicode="&#xb6;" horiz-adv-x="1269" d="M-35 1272q0 107 37.5 180.5t109 112.5t157 55t200.5 16h643v-1814h-242v1622h-206v-1622h-242v1100q-221 0 -339 92t-118 258z" />
<glyph unicode="&#xb7;" horiz-adv-x="512" d="M68 672q0 78 55 133t133 55t133 -55t55 -133t-55 -133.5t-133 -55.5t-133 55.5t-55 133.5z" />
<glyph unicode="&#xb8;" horiz-adv-x="569" d="M10 -342l39 55q113 -37 168 -37q105 0 105 70q0 80 -89 80q-27 0 -81 -16l-46 38l117 152h113l-82 -90h4q34 10 82 10q77 0 125.5 -43.5t48.5 -118.5q0 -49 -21.5 -83t-58.5 -50.5t-73 -23.5t-76 -7q-128 0 -275 64z" />
<glyph unicode="&#xb9;" horiz-adv-x="665" d="M55 1378v131q62 0 121 29t76 82h225v-965h-254v723h-168z" />
<glyph unicode="&#xba;" horiz-adv-x="665" d="M41 1047v362q0 66 26.5 112.5t71.5 70.5t92 34t101 10t101.5 -10t93 -34t72 -70.5t26.5 -112.5v-362q0 -53 -18 -94t-47 -66t-68.5 -40.5t-78 -21.5t-81.5 -6q-42 0 -80 6t-77.5 21.5t-68.5 40.5t-47 66t-18 94zM270 1047q0 -72 62 -72q63 0 63 72v362q0 72 -63 72 q-62 0 -62 -72v-362z" />
<glyph unicode="&#xbb;" d="M90 969h266l207 -289l-203 -297h-266l207 297zM461 969h266l207 -289l-203 -297h-266l207 297z" />
<glyph unicode="&#xbc;" horiz-adv-x="1536" d="M0 1378v131q62 0 121 29t76 82h225v-965h-254v723h-168zM186 -53l856 1716h209l-856 -1716h-209zM895 178v207q136 273 158 582h254q-6 -75 -22.5 -140.5t-45.5 -126.5t-56 -107t-70.5 -116t-70.5 -119h160v129q53 52 94.5 132t57.5 153h102v-414h80v-180h-80v-178h-254 v178h-307z" />
<glyph unicode="&#xbd;" horiz-adv-x="1536" d="M0 1378v131q62 0 121 29t76 82h225v-965h-254v723h-168zM160 -53l856 1716h209l-856 -1716h-209zM920 0v59q4 85 27 155t56 117t72.5 87t78 73t70 65.5t51 74.5t19.5 92q0 42 -12 66t-51 24q-40 0 -53 -24t-13 -66v-94h-229v73q8 146 78 212.5t231 66.5 q138 0 214.5 -64.5t76.5 -191.5q0 -72 -24 -130t-65 -100.5t-84 -78.5t-92.5 -83.5t-80.5 -96.5q-9 -12 -12 -27q-10 -20 -13 -29h359v-180h-604z" />
<glyph unicode="&#xbe;" horiz-adv-x="1536" d="M0 889v90h229v-98q0 -74 66 -74q63 0 63 74v67q0 86 -28.5 114.5t-120.5 29.5v155h41q40 0 70 20t30 56v80q0 33 -10 49t-45 16q-33 0 -47.5 -15t-14.5 -54v-66h-229q-8 151 58.5 227t236.5 76q141 0 217 -56t76 -187q0 -79 -26 -131t-97 -82q131 -42 131 -219 q0 -160 -68 -241t-233 -81q-142 0 -220.5 62.5t-78.5 187.5zM250 -53l856 1716h209l-856 -1716h-209zM895 184v207q136 273 158 582h254q-7 -92 -35.5 -179t-56.5 -138t-86.5 -145.5t-86.5 -145.5h160v129q53 52 94.5 131.5t57.5 152.5h102v-413h80v-181h-80v-178h-254v178 h-307z" />
<glyph unicode="&#xbf;" d="M49 143q0 74 23 139.5t60 115t82 96t90 93.5t82 96.5t60 115t23 139.5h266v-92q0 -95 -34.5 -178t-83.5 -142.5t-98 -115t-83.5 -120t-34.5 -132.5q0 -78 24 -123t91 -45q59 0 87 52.5t28 137.5v113h315v-137q0 -182 -120 -295t-324 -113q-212 0 -332.5 98t-120.5 297z M422 1034v377h340v-377h-340z" />
<glyph unicode="&#xc0;" horiz-adv-x="1138" d="M14 0l303 1636h500l307 -1636h-395l-35 291h-264l-39 -291h-377zM291 2013h323l91 -278h-191zM469 582h188l-88 800h-4z" />
<glyph unicode="&#xc1;" horiz-adv-x="1138" d="M14 0l303 1636h500l307 -1636h-395l-35 291h-264l-39 -291h-377zM434 1735l96 278h318l-217 -278h-197zM469 582h188l-88 800h-4z" />
<glyph unicode="&#xc2;" horiz-adv-x="1138" d="M14 0l303 1636h500l307 -1636h-395l-35 291h-264l-39 -291h-377zM266 1735l170 278h289l147 -278h-213l-90 155l-102 -155h-201zM469 582h188l-88 800h-4z" />
<glyph unicode="&#xc3;" horiz-adv-x="1138" d="M14 0l303 1636h500l307 -1636h-395l-35 291h-264l-39 -291h-377zM236 1788q16 41 31.5 70.5t40 63.5t58 52.5t72.5 18.5q51 0 137.5 -35t118.5 -35q38 0 67.5 22.5t43.5 59.5l98 -43q-40 -98 -92 -151.5t-141 -53.5q-52 0 -123.5 34t-112.5 34q-28 0 -56 -23t-44 -51z M469 582h188l-88 800h-4z" />
<glyph unicode="&#xc4;" horiz-adv-x="1138" d="M14 0l303 1636h500l307 -1636h-395l-35 291h-264l-39 -291h-377zM289 1747v266h229v-266h-229zM469 582h188l-88 800h-4zM621 1747v266h229v-266h-229z" />
<glyph unicode="&#xc5;" horiz-adv-x="1138" d="M14 0l303 1636h500l307 -1636h-395l-35 291h-264l-39 -291h-377zM330 1858q0 45 23 79.5t60 53.5t77 28t81 9q58 0 109 -15t90 -55t39 -100t-38 -101t-89.5 -57.5t-110.5 -16.5q-43 0 -82.5 8.5t-76.5 27t-59.5 54.5t-22.5 85zM436 1858q0 -80 135 -80q51 0 91 17.5 t40 62.5q0 25 -12 41.5t-34.5 23t-40.5 8.5t-44 2q-135 0 -135 -75zM469 582h188l-88 800h-4z" />
<glyph unicode="&#xc6;" horiz-adv-x="1593" d="M-29 0l416 1636h1108v-315h-438v-326h401v-315h-401v-365h452v-315h-817v315h-266l-74 -315h-381zM498 618h194v789h-10z" />
<glyph unicode="&#xc7;" horiz-adv-x="1138" d="M84 446v744q0 231 133 352t352 121q220 0 353 -121t133 -352v-152h-377v185q0 24 -0.5 37.5t-6.5 37.5t-16.5 38t-32.5 25t-53 11q-26 0 -45.5 -6.5t-31 -20.5t-18.5 -26.5t-9.5 -33.5t-3 -31.5t-0.5 -30.5v-809q0 -20 0.5 -33t6 -38t16 -39.5t32.5 -27t53 -12.5t53 12 t32.5 27.5t16.5 40t6.5 37.5t0.5 33v239h377v-207q0 -211 -122.5 -337.5t-334.5 -133.5l-59 -65h4q34 10 82 10q77 0 125.5 -43.5t48.5 -118.5q0 -49 -22 -83t-58.5 -50.5t-73 -23.5t-76.5 -7q-127 0 -274 64l39 55q113 -37 168 -37q104 0 104 70q0 80 -88 80q-28 0 -82 -16 l-45 38l101 132q-191 22 -299.5 145.5t-108.5 320.5z" />
<glyph unicode="&#xc8;" d="M84 0v1636h838v-315h-461v-326h403v-315h-403v-365h479v-315h-856zM233 2013h324l90 -278h-190z" />
<glyph unicode="&#xc9;" d="M84 0v1636h838v-315h-461v-326h403v-315h-403v-365h479v-315h-856zM377 1735l96 278h318l-218 -278h-196z" />
<glyph unicode="&#xca;" d="M84 0v1636h838v-315h-461v-326h403v-315h-403v-365h479v-315h-856zM209 1735l170 278h289l147 -278h-213l-90 155l-102 -155h-201z" />
<glyph unicode="&#xcb;" d="M84 0v1636h838v-315h-461v-326h403v-315h-403v-365h479v-315h-856zM231 1747v266h230v-266h-230zM563 1747v266h230v-266h-230z" />
<glyph unicode="&#xcc;" horiz-adv-x="569" d="M6 2013h324l90 -278h-191zM96 0v1636h377v-1636h-377z" />
<glyph unicode="&#xcd;" horiz-adv-x="569" d="M96 0v1636h377v-1636h-377zM150 1735l96 278h317l-217 -278h-196z" />
<glyph unicode="&#xce;" horiz-adv-x="569" d="M-18 1735l170 278h288l148 -278h-213l-90 155l-103 -155h-200zM96 0v1636h377v-1636h-377z" />
<glyph unicode="&#xcf;" horiz-adv-x="569" d="M4 1747v266h229v-266h-229zM96 0v1636h377v-1636h-377zM336 1747v266h229v-266h-229z" />
<glyph unicode="&#xd0;" horiz-adv-x="1138" d="M6 750v254h78v632h561q94 0 166 -22t117.5 -59.5t74.5 -94t40.5 -120t11.5 -142.5v-778q0 -108 -35.5 -191t-95.5 -131.5t-130.5 -73t-148.5 -24.5h-561v750h-78zM461 279h67q68 0 109 33.5t41 86.5v820q0 139 -158 139h-59v-354h114v-254h-114v-471z" />
<glyph unicode="&#xd1;" horiz-adv-x="1251" d="M84 0v1636h412l303 -964h4v964h364v-1636h-409l-305 1012h-4v-1012h-365zM293 1788q16 40 31.5 70.5t40.5 64t58.5 52t72.5 18.5q51 0 137.5 -35t118.5 -35q38 0 67 22.5t43 59.5l99 -43q-40 -98 -92.5 -151.5t-141.5 -53.5q-52 0 -123 34t-112 34q-28 0 -56.5 -23.5 t-44.5 -50.5z" />
<glyph unicode="&#xd2;" horiz-adv-x="1138" d="M84 446v744q0 231 133 352t352 121q220 0 353 -121t133 -352v-744q0 -218 -131 -345.5t-355 -127.5t-354.5 127.5t-130.5 345.5zM291 2013h323l91 -278h-191zM461 414q0 -20 0.5 -33t6 -38t16 -39.5t32.5 -27t53 -12.5t53 12t32.5 27.5t16.5 40t6.5 37.5t0.5 33v809 q0 24 -0.5 37.5t-6.5 37.5t-16.5 38t-32.5 25t-53 11q-26 0 -45.5 -6.5t-31 -20.5t-18.5 -26.5t-9.5 -33.5t-3 -31.5t-0.5 -30.5v-809z" />
<glyph unicode="&#xd3;" horiz-adv-x="1138" d="M84 446v744q0 231 133 352t352 121q220 0 353 -121t133 -352v-744q0 -218 -131 -345.5t-355 -127.5t-354.5 127.5t-130.5 345.5zM434 1735l96 278h318l-217 -278h-197zM461 414q0 -20 0.5 -33t6 -38t16 -39.5t32.5 -27t53 -12.5t53 12t32.5 27.5t16.5 40t6.5 37.5t0.5 33 v809q0 24 -0.5 37.5t-6.5 37.5t-16.5 38t-32.5 25t-53 11q-26 0 -45.5 -6.5t-31 -20.5t-18.5 -26.5t-9.5 -33.5t-3 -31.5t-0.5 -30.5v-809z" />
<glyph unicode="&#xd4;" horiz-adv-x="1138" d="M84 446v744q0 231 133 352t352 121q220 0 353 -121t133 -352v-744q0 -218 -131 -345.5t-355 -127.5t-354.5 127.5t-130.5 345.5zM266 1735l170 278h289l147 -278h-213l-90 155l-102 -155h-201zM461 414q0 -20 0.5 -33t6 -38t16 -39.5t32.5 -27t53 -12.5t53 12t32.5 27.5 t16.5 40t6.5 37.5t0.5 33v809q0 24 -0.5 37.5t-6.5 37.5t-16.5 38t-32.5 25t-53 11q-26 0 -45.5 -6.5t-31 -20.5t-18.5 -26.5t-9.5 -33.5t-3 -31.5t-0.5 -30.5v-809z" />
<glyph unicode="&#xd5;" horiz-adv-x="1138" d="M84 446v744q0 231 133 352t352 121q220 0 353 -121t133 -352v-744q0 -218 -131 -345.5t-355 -127.5t-354.5 127.5t-130.5 345.5zM236 1788q16 41 31.5 70.5t40 63.5t58 52.5t72.5 18.5q51 0 137.5 -35t118.5 -35q38 0 67.5 22.5t43.5 59.5l98 -43q-40 -98 -92 -151.5 t-141 -53.5q-52 0 -123.5 34t-112.5 34q-28 0 -56 -23t-44 -51zM461 414q0 -20 0.5 -33t6 -38t16 -39.5t32.5 -27t53 -12.5t53 12t32.5 27.5t16.5 40t6.5 37.5t0.5 33v809q0 24 -0.5 37.5t-6.5 37.5t-16.5 38t-32.5 25t-53 11q-26 0 -45.5 -6.5t-31 -20.5t-18.5 -26.5 t-9.5 -33.5t-3 -31.5t-0.5 -30.5v-809z" />
<glyph unicode="&#xd6;" horiz-adv-x="1138" d="M84 446v744q0 231 133 352t352 121q220 0 353 -121t133 -352v-744q0 -218 -131 -345.5t-355 -127.5t-354.5 127.5t-130.5 345.5zM289 1747v266h229v-266h-229zM461 414q0 -20 0.5 -33t6 -38t16 -39.5t32.5 -27t53 -12.5t53 12t32.5 27.5t16.5 40t6.5 37.5t0.5 33v809 q0 24 -0.5 37.5t-6.5 37.5t-16.5 38t-32.5 25t-53 11q-26 0 -45.5 -6.5t-31 -20.5t-18.5 -26.5t-9.5 -33.5t-3 -31.5t-0.5 -30.5v-809zM621 1747v266h229v-266h-229z" />
<glyph unicode="&#xd7;" horiz-adv-x="1228" d="M111 371l295 295l-295 295l208 208l295 -295l295 295l209 -208l-295 -295l295 -295l-209 -209l-295 295l-295 -295z" />
<glyph unicode="&#xd8;" horiz-adv-x="1138" d="M47 16l103 174q-66 111 -66 256v744q0 231 133 352t352 121q244 0 373 -141l80 135l111 -55l-117 -197q39 -95 39 -215v-744q0 -218 -131 -345.5t-355 -127.5q-209 0 -338 113l-73 -125zM461 414q0 -20 0.5 -33t6 -38t16 -39.5t32.5 -27t53 -12.5t53 12t32.5 27.5 t16.5 40t6.5 37.5t0.5 33v422h-4l-213 -365v-57zM461 713h4l213 364v146q0 24 -0.5 37.5t-6.5 37.5t-16.5 38t-32.5 25t-53 11q-26 0 -45.5 -6.5t-31 -20.5t-18.5 -26.5t-9.5 -33.5t-3 -31.5t-0.5 -30.5v-510z" />
<glyph unicode="&#xd9;" horiz-adv-x="1138" d="M84 446v1190h377v-1194v-37.5t2 -33t6 -32t12 -25t19 -21.5t28.5 -12t40.5 -5q32 0 53.5 10t32 22t16 38.5t6.5 43.5t1 52v1194h377v-1190q0 -218 -131 -345.5t-355 -127.5t-354.5 127.5t-130.5 345.5zM291 2013h323l91 -278h-191z" />
<glyph unicode="&#xda;" horiz-adv-x="1138" d="M84 446v1190h377v-1194v-37.5t2 -33t6 -32t12 -25t19 -21.5t28.5 -12t40.5 -5q32 0 53.5 10t32 22t16 38.5t6.5 43.5t1 52v1194h377v-1190q0 -218 -131 -345.5t-355 -127.5t-354.5 127.5t-130.5 345.5zM434 1735l96 278h318l-217 -278h-197z" />
<glyph unicode="&#xdb;" horiz-adv-x="1138" d="M84 446v1190h377v-1194v-37.5t2 -33t6 -32t12 -25t19 -21.5t28.5 -12t40.5 -5q32 0 53.5 10t32 22t16 38.5t6.5 43.5t1 52v1194h377v-1190q0 -218 -131 -345.5t-355 -127.5t-354.5 127.5t-130.5 345.5zM266 1735l170 278h289l147 -278h-213l-90 155l-102 -155h-201z" />
<glyph unicode="&#xdc;" horiz-adv-x="1138" d="M84 446v1190h377v-1194v-37.5t2 -33t6 -32t12 -25t19 -21.5t28.5 -12t40.5 -5q32 0 53.5 10t32 22t16 38.5t6.5 43.5t1 52v1194h377v-1190q0 -218 -131 -345.5t-355 -127.5t-354.5 127.5t-130.5 345.5zM289 1747v266h229v-266h-229zM621 1747v266h229v-266h-229z" />
<glyph unicode="&#xdd;" d="M16 1636h390l104 -553h4l111 553h383l-308 -962v-674h-376v647zM377 1735l96 278h318l-218 -278h-196z" />
<glyph unicode="&#xde;" horiz-adv-x="1138" d="M84 0v1636h377v-266h121q91 0 156.5 -8t123.5 -28.5t95 -56t64 -91t38.5 -132.5t11.5 -182q0 -56 -3.5 -103t-14 -98.5t-27.5 -92t-46.5 -78.5t-69 -62.5t-96.5 -39.5t-128 -15h-225v-383h-377zM461 674h94q86 0 112.5 44.5t26.5 162.5q0 33 -2.5 59t-6 46t-12.5 34.5 t-15.5 24.5t-21.5 16.5t-25 10t-31 5t-34 2t-40 0.5h-2h-43v-405z" />
<glyph unicode="&#xdf;" d="M80 0v1270q0 85 22.5 150t60.5 105.5t93.5 66t115 35t132.5 9.5q199 0 311.5 -85t112.5 -261q0 -56 -5 -95.5t-19.5 -79.5t-45 -69.5t-78.5 -50.5v-4q44 -9 75 -28t48.5 -41.5t26.5 -58t11.5 -66.5t2.5 -78v-307q0 -412 -321 -412h-136v291q53 0 79 22t26 72v391 q0 53 -25.5 75.5t-79.5 22.5v254q43 0 71.5 20.5t29.5 61.5v66q0 58 -15.5 82t-68.5 24q-26 0 -41.5 -8.5t-21.5 -26t-7.5 -30t-1.5 -35.5v-1282h-352z" />
<glyph unicode="&#xe0;" d="M80 373q0 71 16 129t39.5 96t61.5 70.5t71 51t78 38.5q16 7 48 19.5t48 19.5t42.5 19.5t40.5 22.5t31.5 26.5t26 32.5t15 38.5t6.5 48.5q0 56 -17.5 82.5t-64.5 26.5q-90 0 -90 -90v-107h-328v119q0 144 115.5 231.5t298.5 87.5q234 0 330 -96.5t96 -312.5v-926h-323v100 h-5q-39 -59 -106.5 -93t-142.5 -34q-63 0 -111 14.5t-78.5 43t-50.5 62.5t-30 83t-13.5 93.5t-3.5 103.5zM233 1686h324l90 -279h-190zM444 295q0 -105 78 -105q40 0 61 32.5t21 82.5v352l-98 -71q-62 -47 -62 -117v-174z" />
<glyph unicode="&#xe1;" d="M80 373q0 71 16 129t39.5 96t61.5 70.5t71 51t78 38.5q16 7 48 19.5t48 19.5t42.5 19.5t40.5 22.5t31.5 26.5t26 32.5t15 38.5t6.5 48.5q0 56 -17.5 82.5t-64.5 26.5q-90 0 -90 -90v-107h-328v119q0 144 115.5 231.5t298.5 87.5q234 0 330 -96.5t96 -312.5v-926h-323v100 h-5q-39 -59 -106.5 -93t-142.5 -34q-63 0 -111 14.5t-78.5 43t-50.5 62.5t-30 83t-13.5 93.5t-3.5 103.5zM377 1407l96 279h318l-218 -279h-196zM444 295q0 -105 78 -105q40 0 61 32.5t21 82.5v352l-98 -71q-62 -47 -62 -117v-174z" />
<glyph unicode="&#xe2;" d="M80 373q0 71 16 129t39.5 96t61.5 70.5t71 51t78 38.5q16 7 48 19.5t48 19.5t42.5 19.5t40.5 22.5t31.5 26.5t26 32.5t15 38.5t6.5 48.5q0 56 -17.5 82.5t-64.5 26.5q-90 0 -90 -90v-107h-328v119q0 144 115.5 231.5t298.5 87.5q234 0 330 -96.5t96 -312.5v-926h-323v100 h-5q-39 -59 -106.5 -93t-142.5 -34q-63 0 -111 14.5t-78.5 43t-50.5 62.5t-30 83t-13.5 93.5t-3.5 103.5zM209 1407l170 279h289l147 -279h-213l-90 156l-102 -156h-201zM444 295q0 -105 78 -105q40 0 61 32.5t21 82.5v352l-98 -71q-62 -47 -62 -117v-174z" />
<glyph unicode="&#xe3;" d="M80 373q0 71 16 129t39.5 96t61.5 70.5t71 51t78 38.5q16 7 48 19.5t48 19.5t42.5 19.5t40.5 22.5t31.5 26.5t26 32.5t15 38.5t6.5 48.5q0 56 -17.5 82.5t-64.5 26.5q-90 0 -90 -90v-107h-328v119q0 144 115.5 231.5t298.5 87.5q234 0 330 -96.5t96 -312.5v-926h-323v100 h-5q-39 -59 -106.5 -93t-142.5 -34q-63 0 -111 14.5t-78.5 43t-50.5 62.5t-30 83t-13.5 93.5t-3.5 103.5zM178 1460q16 40 31.5 70.5t40.5 64t58.5 52t72.5 18.5q51 0 137.5 -35t118.5 -35q38 0 67.5 22.5t43.5 59.5l98 -43q-19 -46 -38 -78.5t-46.5 -63.5t-65 -46.5 t-84.5 -15.5q-52 0 -123 33.5t-112 33.5q-28 0 -56.5 -23.5t-44.5 -50.5zM444 295q0 -105 78 -105q40 0 61 32.5t21 82.5v352l-98 -71q-62 -47 -62 -117v-174z" />
<glyph unicode="&#xe4;" d="M80 373q0 71 16 129t39.5 96t61.5 70.5t71 51t78 38.5q16 7 48 19.5t48 19.5t42.5 19.5t40.5 22.5t31.5 26.5t26 32.5t15 38.5t6.5 48.5q0 56 -17.5 82.5t-64.5 26.5q-90 0 -90 -90v-107h-328v119q0 144 115.5 231.5t298.5 87.5q234 0 330 -96.5t96 -312.5v-926h-323v100 h-5q-39 -59 -106.5 -93t-142.5 -34q-63 0 -111 14.5t-78.5 43t-50.5 62.5t-30 83t-13.5 93.5t-3.5 103.5zM231 1419v267h230v-267h-230zM444 295q0 -105 78 -105q40 0 61 32.5t21 82.5v352l-98 -71q-62 -47 -62 -117v-174zM563 1419v267h230v-267h-230z" />
<glyph unicode="&#xe5;" d="M80 373q0 71 16 129t39.5 96t61.5 70.5t71 51t78 38.5q16 7 48 19.5t48 19.5t42.5 19.5t40.5 22.5t31.5 26.5t26 32.5t15 38.5t6.5 48.5q0 56 -17.5 82.5t-64.5 26.5q-90 0 -90 -90v-107h-328v119q0 144 115.5 231.5t298.5 87.5q234 0 330 -96.5t96 -312.5v-926h-323v100 h-5q-39 -59 -106.5 -93t-142.5 -34q-63 0 -111 14.5t-78.5 43t-50.5 62.5t-30 83t-13.5 93.5t-3.5 103.5zM272 1530q0 59 40.5 99.5t92.5 55.5t109 15q58 0 109 -15t90 -55t39 -100t-38 -101t-89.5 -57t-110.5 -16q-43 0 -82.5 8.5t-77 27t-60 54t-22.5 84.5zM379 1530 q0 -80 135 -80q51 0 91 17.5t40 62.5q0 25 -12 42t-34.5 23.5t-40.5 8.5t-44 2q-135 0 -135 -76zM444 295q0 -105 78 -105q40 0 61 32.5t21 82.5v352l-98 -71q-62 -47 -62 -117v-174z" />
<glyph unicode="&#xe6;" horiz-adv-x="1478" d="M70 373q0 71 14.5 129t37 96.5t58 70.5t68 50.5t76.5 38.5q16 7 48 19.5t48 19.5t42.5 19.5t40.5 22.5t31.5 26.5t26 32.5t15 38.5t6.5 48.5q0 56 -17.5 82.5t-64.5 26.5q-90 0 -90 -90v-107h-328v119q0 144 115.5 231.5t298.5 87.5q145 0 249 -69q102 69 302 69 q67 0 129.5 -19t115 -56t84.5 -99.5t33 -142.5v-416h-487v-295q0 -92 79 -92q80 0 80 102v168h328v-200q0 -83 -31 -145t-85.5 -97.5t-121 -52.5t-145.5 -17q-66 0 -107 4t-90 19.5t-94 48t-94 86.5q-40 -52 -81.5 -86t-80.5 -48.5t-66 -19t-59 -4.5q-56 0 -100 11.5 t-73.5 30t-50.5 50t-32.5 62t-18 75.5t-8 81.5t-1.5 89.5zM422 295q0 -105 78 -105q40 0 61 32.5t21 82.5v352l-99 -71q-61 -46 -61 -117v-174zM922 844h159v143q0 24 -1.5 37t-8 32t-24.5 28.5t-46 9.5q-23 0 -39 -7.5t-23.5 -16.5t-11.5 -26.5t-4.5 -27.5t-0.5 -29v-143z " />
<glyph unicode="&#xe7;" d="M80 346v617q0 51 10.5 98.5t40.5 98.5t76.5 88.5t125 62t179.5 24.5t179.5 -24.5t125 -62t76.5 -88.5t40.5 -98.5t10.5 -98.5v-140h-352v164q0 24 -1.5 37t-8 32t-24.5 28.5t-46 9.5t-46 -9.5t-24.5 -28.5t-8 -32t-1.5 -37v-665q0 -24 1.5 -37t8 -32t24.5 -28.5t46 -9.5 t46 9.5t24.5 28.5t8 32t1.5 37v235h352v-211q0 -48 -9.5 -93t-36 -94.5t-68 -87t-111.5 -63.5t-160 -31l-78 -86h4q37 11 82 11q77 0 125.5 -43.5t48.5 -118.5q0 -49 -21.5 -83t-58.5 -50.5t-73 -23.5t-76 -7q-127 0 -274 64l38 55q113 -37 168 -37q105 0 105 70 q0 79 -88 79q-28 0 -82 -16l-45 39l115 150q-86 7 -153 34t-106.5 64t-65 85t-35 92t-9.5 91z" />
<glyph unicode="&#xe8;" d="M80 346v617q0 51 10.5 98.5t40.5 98.5t76.5 88.5t125 62t179.5 24.5t179.5 -24.5t125 -62t76.5 -88.5t40.5 -98.5t10.5 -98.5v-361h-512v-280q0 -24 1.5 -37t8 -32t24.5 -28.5t46 -9.5t46 9.5t24.5 28.5t8 32t1.5 37v163h352v-139q0 -51 -10.5 -98.5t-40.5 -99t-76.5 -89 t-125 -62t-179.5 -24.5t-179.5 24.5t-125 62t-76.5 89t-40.5 99t-10.5 98.5zM233 1686h324l90 -279h-190zM432 844h160v143q0 24 -1.5 37t-8 32t-24.5 28.5t-46 9.5t-46 -9.5t-24.5 -28.5t-8 -32t-1.5 -37v-143z" />
<glyph unicode="&#xe9;" d="M80 346v617q0 51 10.5 98.5t40.5 98.5t76.5 88.5t125 62t179.5 24.5t179.5 -24.5t125 -62t76.5 -88.5t40.5 -98.5t10.5 -98.5v-361h-512v-280q0 -24 1.5 -37t8 -32t24.5 -28.5t46 -9.5t46 9.5t24.5 28.5t8 32t1.5 37v163h352v-139q0 -51 -10.5 -98.5t-40.5 -99t-76.5 -89 t-125 -62t-179.5 -24.5t-179.5 24.5t-125 62t-76.5 89t-40.5 99t-10.5 98.5zM377 1407l96 279h318l-218 -279h-196zM432 844h160v143q0 24 -1.5 37t-8 32t-24.5 28.5t-46 9.5t-46 -9.5t-24.5 -28.5t-8 -32t-1.5 -37v-143z" />
<glyph unicode="&#xea;" d="M80 346v617q0 51 10.5 98.5t40.5 98.5t76.5 88.5t125 62t179.5 24.5t179.5 -24.5t125 -62t76.5 -88.5t40.5 -98.5t10.5 -98.5v-361h-512v-280q0 -24 1.5 -37t8 -32t24.5 -28.5t46 -9.5t46 9.5t24.5 28.5t8 32t1.5 37v163h352v-139q0 -51 -10.5 -98.5t-40.5 -99t-76.5 -89 t-125 -62t-179.5 -24.5t-179.5 24.5t-125 62t-76.5 89t-40.5 99t-10.5 98.5zM209 1407l170 279h289l147 -279h-213l-90 156l-102 -156h-201zM432 844h160v143q0 24 -1.5 37t-8 32t-24.5 28.5t-46 9.5t-46 -9.5t-24.5 -28.5t-8 -32t-1.5 -37v-143z" />
<glyph unicode="&#xeb;" d="M80 346v617q0 51 10.5 98.5t40.5 98.5t76.5 88.5t125 62t179.5 24.5t179.5 -24.5t125 -62t76.5 -88.5t40.5 -98.5t10.5 -98.5v-361h-512v-280q0 -24 1.5 -37t8 -32t24.5 -28.5t46 -9.5t46 9.5t24.5 28.5t8 32t1.5 37v163h352v-139q0 -51 -10.5 -98.5t-40.5 -99t-76.5 -89 t-125 -62t-179.5 -24.5t-179.5 24.5t-125 62t-76.5 89t-40.5 99t-10.5 98.5zM231 1419v267h230v-267h-230zM432 844h160v143q0 24 -1.5 37t-8 32t-24.5 28.5t-46 9.5t-46 -9.5t-24.5 -28.5t-8 -32t-1.5 -37v-143zM563 1419v267h230v-267h-230z" />
<glyph unicode="&#xec;" horiz-adv-x="569" d="M6 1686h324l90 -279h-191zM109 0v1309h352v-1309h-352z" />
<glyph unicode="&#xed;" horiz-adv-x="569" d="M109 0v1309h352v-1309h-352zM150 1407l96 279h317l-217 -279h-196z" />
<glyph unicode="&#xee;" horiz-adv-x="569" d="M-18 1407l170 279h288l148 -279h-213l-90 156l-103 -156h-200zM109 0v1309h352v-1309h-352z" />
<glyph unicode="&#xef;" horiz-adv-x="569" d="M4 1419v267h229v-267h-229zM109 0v1309h352v-1309h-352zM336 1419v267h229v-267h-229z" />
<glyph unicode="&#xf0;" d="M80 346v508q0 80 35.5 145.5t94.5 107t132 63.5t150 22q47 0 104 -16q0 27 -25.5 81t-70.5 99l-191 -80l-110 115l180 73q-18 16 -69 43.5t-101 46.5l223 109q166 -88 186 -100l228 94l98 -133l-199 -84q199 -204 199 -592v-502q0 -51 -10.5 -98.5t-40.5 -99t-76.5 -89 t-125 -62t-179.5 -24.5t-179.5 24.5t-125 62t-76.5 89t-40.5 99t-10.5 98.5zM432 322q0 -24 1.5 -37t8 -32t24.5 -28.5t46 -9.5t46 9.5t24.5 28.5t8 32t1.5 37v522q0 19 -0.5 29t-4.5 27t-12 26t-24 16.5t-39 7.5t-39 -7.5t-24 -16.5t-12 -26t-4.5 -27t-0.5 -29v-522z" />
<glyph unicode="&#xf1;" d="M80 0v1309h340v-146h4q50 88 110.5 130t157.5 42q122 0 187 -78t65 -202v-1055h-352v895q0 20 -0.5 31.5t-4.5 32t-12 32t-24 20.5t-39 9q-80 0 -80 -125v-895h-352zM178 1460q16 40 31.5 70.5t40.5 64t58.5 52t72.5 18.5q51 0 137.5 -35t118.5 -35q38 0 67.5 22.5 t43.5 59.5l98 -43q-19 -46 -38 -78.5t-46.5 -63.5t-65 -46.5t-84.5 -15.5q-52 0 -123 33.5t-112 33.5q-28 0 -56.5 -23.5t-44.5 -50.5z" />
<glyph unicode="&#xf2;" d="M80 346v617q0 51 10.5 98.5t40.5 98.5t76.5 88.5t125 62t179.5 24.5t179.5 -24.5t125 -62t76.5 -88.5t40.5 -98.5t10.5 -98.5v-617q0 -51 -10.5 -98.5t-40.5 -99t-76.5 -89t-125 -62t-179.5 -24.5t-179.5 24.5t-125 62t-76.5 89t-40.5 99t-10.5 98.5zM233 1686h324 l90 -279h-190zM432 322q0 -24 1.5 -37t8 -32t24.5 -28.5t46 -9.5t46 9.5t24.5 28.5t8 32t1.5 37v665q0 24 -1.5 37t-8 32t-24.5 28.5t-46 9.5t-46 -9.5t-24.5 -28.5t-8 -32t-1.5 -37v-665z" />
<glyph unicode="&#xf3;" d="M80 346v617q0 51 10.5 98.5t40.5 98.5t76.5 88.5t125 62t179.5 24.5t179.5 -24.5t125 -62t76.5 -88.5t40.5 -98.5t10.5 -98.5v-617q0 -51 -10.5 -98.5t-40.5 -99t-76.5 -89t-125 -62t-179.5 -24.5t-179.5 24.5t-125 62t-76.5 89t-40.5 99t-10.5 98.5zM377 1407l96 279 h318l-218 -279h-196zM432 322q0 -24 1.5 -37t8 -32t24.5 -28.5t46 -9.5t46 9.5t24.5 28.5t8 32t1.5 37v665q0 24 -1.5 37t-8 32t-24.5 28.5t-46 9.5t-46 -9.5t-24.5 -28.5t-8 -32t-1.5 -37v-665z" />
<glyph unicode="&#xf4;" d="M80 346v617q0 51 10.5 98.5t40.5 98.5t76.5 88.5t125 62t179.5 24.5t179.5 -24.5t125 -62t76.5 -88.5t40.5 -98.5t10.5 -98.5v-617q0 -51 -10.5 -98.5t-40.5 -99t-76.5 -89t-125 -62t-179.5 -24.5t-179.5 24.5t-125 62t-76.5 89t-40.5 99t-10.5 98.5zM209 1407l170 279 h289l147 -279h-213l-90 156l-102 -156h-201zM432 322q0 -24 1.5 -37t8 -32t24.5 -28.5t46 -9.5t46 9.5t24.5 28.5t8 32t1.5 37v665q0 24 -1.5 37t-8 32t-24.5 28.5t-46 9.5t-46 -9.5t-24.5 -28.5t-8 -32t-1.5 -37v-665z" />
<glyph unicode="&#xf5;" d="M80 346v617q0 51 10.5 98.5t40.5 98.5t76.5 88.5t125 62t179.5 24.5t179.5 -24.5t125 -62t76.5 -88.5t40.5 -98.5t10.5 -98.5v-617q0 -51 -10.5 -98.5t-40.5 -99t-76.5 -89t-125 -62t-179.5 -24.5t-179.5 24.5t-125 62t-76.5 89t-40.5 99t-10.5 98.5zM178 1460 q16 40 31.5 70.5t40.5 64t58.5 52t72.5 18.5q51 0 137.5 -35t118.5 -35q38 0 67.5 22.5t43.5 59.5l98 -43q-19 -46 -38 -78.5t-46.5 -63.5t-65 -46.5t-84.5 -15.5q-52 0 -123 33.5t-112 33.5q-28 0 -56.5 -23.5t-44.5 -50.5zM432 322q0 -24 1.5 -37t8 -32t24.5 -28.5 t46 -9.5t46 9.5t24.5 28.5t8 32t1.5 37v665q0 24 -1.5 37t-8 32t-24.5 28.5t-46 9.5t-46 -9.5t-24.5 -28.5t-8 -32t-1.5 -37v-665z" />
<glyph unicode="&#xf6;" d="M80 346v617q0 51 10.5 98.5t40.5 98.5t76.5 88.5t125 62t179.5 24.5t179.5 -24.5t125 -62t76.5 -88.5t40.5 -98.5t10.5 -98.5v-617q0 -51 -10.5 -98.5t-40.5 -99t-76.5 -89t-125 -62t-179.5 -24.5t-179.5 24.5t-125 62t-76.5 89t-40.5 99t-10.5 98.5zM231 1419v267h230 v-267h-230zM432 322q0 -24 1.5 -37t8 -32t24.5 -28.5t46 -9.5t46 9.5t24.5 28.5t8 32t1.5 37v665q0 24 -1.5 37t-8 32t-24.5 28.5t-46 9.5t-46 -9.5t-24.5 -28.5t-8 -32t-1.5 -37v-665zM563 1419v267h230v-267h-230z" />
<glyph unicode="&#xf7;" horiz-adv-x="1228" d="M96 520v291h1037v-291h-1037zM414 242q0 85 57.5 142.5t142.5 57.5t143 -57.5t58 -142.5q0 -84 -58.5 -142.5t-142.5 -58.5t-142 58.5t-58 142.5zM414 1090q0 85 57.5 142.5t142.5 57.5t143 -57.5t58 -142.5q0 -84 -58.5 -142.5t-142.5 -58.5t-142 58.5t-58 142.5z" />
<glyph unicode="&#xf8;" d="M27 14l98 148q-45 78 -45 184v617q0 51 10.5 98.5t40.5 98.5t76.5 88.5t125 62t179.5 24.5q212 0 322 -102l81 119l89 -66l-99 -151q39 -77 39 -172v-617q0 -51 -10.5 -98.5t-40.5 -99t-76.5 -89t-125 -62t-179.5 -24.5q-201 0 -311 95l-86 -123zM432 322q0 -24 1.5 -37 t8 -32t24.5 -28.5t46 -9.5t46 9.5t24.5 28.5t8 32t1.5 37v337h-4l-156 -241v-96zM432 627h4l156 241v119q0 24 -1.5 37t-8 32t-24.5 28.5t-46 9.5t-46 -9.5t-24.5 -28.5t-8 -32t-1.5 -37v-360z" />
<glyph unicode="&#xf9;" d="M80 254v1055h352v-895q0 -20 0.5 -31.5t4.5 -32t12 -32t24 -20.5t39 -9q80 0 80 125v895h352v-1309h-340v145h-4q-50 -88 -110.5 -130t-157.5 -42q-121 0 -186.5 78.5t-65.5 202.5zM233 1686h324l90 -279h-190z" />
<glyph unicode="&#xfa;" d="M80 254v1055h352v-895q0 -20 0.5 -31.5t4.5 -32t12 -32t24 -20.5t39 -9q80 0 80 125v895h352v-1309h-340v145h-4q-50 -88 -110.5 -130t-157.5 -42q-121 0 -186.5 78.5t-65.5 202.5zM377 1407l96 279h318l-218 -279h-196z" />
<glyph unicode="&#xfb;" d="M80 254v1055h352v-895q0 -20 0.5 -31.5t4.5 -32t12 -32t24 -20.5t39 -9q80 0 80 125v895h352v-1309h-340v145h-4q-50 -88 -110.5 -130t-157.5 -42q-121 0 -186.5 78.5t-65.5 202.5zM209 1407l170 279h289l147 -279h-213l-90 156l-102 -156h-201z" />
<glyph unicode="&#xfc;" d="M80 254v1055h352v-895q0 -20 0.5 -31.5t4.5 -32t12 -32t24 -20.5t39 -9q80 0 80 125v895h352v-1309h-340v145h-4q-50 -88 -110.5 -130t-157.5 -42q-121 0 -186.5 78.5t-65.5 202.5zM231 1419v267h230v-267h-230zM563 1419v267h230v-267h-230z" />
<glyph unicode="&#xfd;" horiz-adv-x="909" d="M10 1309h361l88 -920h4l90 920h346l-229 -1198q-20 -100 -45 -164t-64 -103q-42 -42 -109.5 -62t-179.5 -20h-163v254h79q60 0 60 47q0 35 -23 148zM319 1407l97 279h317l-217 -279h-197z" />
<glyph unicode="&#xfe;" d="M80 -225v1861h352v-458h4q32 75 96 116t150 41q262 0 262 -325v-758q0 -114 -65 -196.5t-179 -82.5q-96 0 -150 33t-114 113h-4v-344h-352zM432 406q0 -166 90 -166q40 0 55 16.5t15 75.5v651q0 86 -70 86q-26 0 -44 -14.5t-27 -33t-13.5 -52.5t-5 -55t-0.5 -58v-450z " />
<glyph unicode="&#xff;" horiz-adv-x="909" d="M10 1309h361l88 -920h4l90 920h346l-229 -1198q-20 -100 -45 -164t-64 -103q-42 -42 -109.5 -62t-179.5 -20h-163v254h79q60 0 60 47q0 35 -23 148zM174 1419v267h229v-267h-229zM506 1419v267h229v-267h-229z" />
<glyph unicode="&#x152;" horiz-adv-x="1593" d="M84 446v744q0 231 133 352t352 121q39 0 109 -12q69 -15 98 -15h723v-315h-457v-326h402v-315h-402v-365h467v-315h-661q-86 0 -141 -12q-69 -15 -138 -15q-224 0 -354.5 127.5t-130.5 345.5zM461 414q0 -20 0.5 -33t6 -38t16 -39.5t32.5 -27t53 -12.5t53 12t32.5 27.5 t16.5 40t6.5 37.5t0.5 33v809q0 24 -0.5 37.5t-6.5 37.5t-16.5 38t-32.5 25t-53 11q-26 0 -45.5 -6.5t-31 -20.5t-18.5 -26.5t-9.5 -33.5t-3 -31.5t-0.5 -30.5v-809z" />
<glyph unicode="&#x153;" horiz-adv-x="1478" d="M70 346v617q0 51 10.5 98.5t40.5 98.5t76.5 88.5t125 62t179.5 24.5q146 0 262 -94q71 53 132 73.5t151 20.5q67 0 129.5 -19t115 -56t84.5 -99.5t33 -142.5v-416h-487v-295q0 -53 24.5 -72.5t65.5 -19.5q69 0 69 102v168h328v-200q0 -83 -31 -145t-85.5 -97.5 t-121 -52.5t-145.5 -17q-99 0 -164.5 21t-128.5 69q-49 -49 -113 -69.5t-118 -20.5q-101 0 -179.5 24.5t-125 62t-76.5 89t-40.5 99t-10.5 98.5zM422 322q0 -24 1.5 -37t8 -32t24.5 -28.5t46 -9.5t46 9.5t24.5 28.5t8 32t1.5 37v665q0 24 -1.5 37t-8 32t-24.5 28.5t-46 9.5 t-46 -9.5t-24.5 -28.5t-8 -32t-1.5 -37v-665zM922 844h159v143q0 24 -1.5 37t-8 32t-24.5 28.5t-46 9.5q-23 0 -39 -7.5t-23.5 -16.5t-11.5 -26.5t-4.5 -27.5t-0.5 -29v-143z" />
<glyph unicode="&#x178;" d="M16 1636h390l104 -553h4l111 553h383l-308 -962v-674h-376v647zM231 1747v266h230v-266h-230zM563 1747v266h230v-266h-230z" />
<glyph unicode="&#x2c6;" horiz-adv-x="569" d="M-18 1425l170 279h288l148 -279h-213l-90 156l-103 -156h-200z" />
<glyph unicode="&#x2dc;" horiz-adv-x="569" d="M-49 1479q16 40 32 70t40.5 63.5t58 52t72.5 18.5q51 0 137.5 -34.5t118.5 -34.5q38 0 67 22.5t43 59.5l98 -43q-40 -98 -92 -151.5t-141 -53.5q-52 0 -123 34t-112 34q-28 0 -56.5 -23.5t-44.5 -50.5z" />
<glyph unicode="&#x2000;" horiz-adv-x="1014" />
<glyph unicode="&#x2001;" horiz-adv-x="2028" />
<glyph unicode="&#x2002;" horiz-adv-x="1014" />
<glyph unicode="&#x2003;" horiz-adv-x="2028" />
<glyph unicode="&#x2004;" horiz-adv-x="676" />
<glyph unicode="&#x2005;" horiz-adv-x="507" />
<glyph unicode="&#x2006;" horiz-adv-x="338" />
<glyph unicode="&#x2007;" horiz-adv-x="338" />
<glyph unicode="&#x2008;" horiz-adv-x="253" />
<glyph unicode="&#x2009;" horiz-adv-x="405" />
<glyph unicode="&#x200a;" horiz-adv-x="112" />
<glyph unicode="&#x2010;" horiz-adv-x="681" d="M72 541v303h538v-303h-538z" />
<glyph unicode="&#x2011;" horiz-adv-x="681" d="M72 541v303h538v-303h-538z" />
<glyph unicode="&#x2012;" horiz-adv-x="681" d="M72 541v303h538v-303h-538z" />
<glyph unicode="&#x2013;" d="M0 553v254h1024v-254h-1024z" />
<glyph unicode="&#x2014;" horiz-adv-x="2048" d="M0 553v254h2048v-254h-2048z" />
<glyph unicode="&#x2018;" horiz-adv-x="569" d="M127 1059v303q0 41 12 79.5t36.5 75t44.5 60t54 59.5h166q-76 -76 -101 -111q-39 -56 -50 -114h153v-352h-315z" />
<glyph unicode="&#x2019;" horiz-adv-x="569" d="M127 1284v352h315v-299q0 -41 -11.5 -79t-37.5 -76t-44 -60.5t-54 -62.5h-166q7 8 30.5 32.5t33 35t28 33.5t27.5 39.5t19 39t14 45.5h-154z" />
<glyph unicode="&#x201a;" horiz-adv-x="569" d="M127 0v352h315v-299q0 -41 -11.5 -79t-37.5 -76t-44 -60.5t-54 -62.5h-166q7 8 30.5 32.5t33 35t28 33.5t27.5 39.5t19 39t14 45.5h-154z" />
<glyph unicode="&#x201c;" d="M143 1059v303q0 54 25 108t51 85.5t72 80.5h166q-1 -1 -20 -19.5t-22.5 -22.5t-19.5 -21t-21 -24t-17.5 -23t-18 -26.5t-13.5 -25.5t-12.5 -29.5t-7.5 -29.5h154v-356h-316zM565 1059v303q0 54 25 108t51 85.5t72 80.5h166l-18.5 -18.5l-19.5 -19.5t-18 -18.5t-19 -21 t-16.5 -21t-17 -23t-14 -23t-13 -26t-9 -26t-7.5 -28.5h154v-352h-316z" />
<glyph unicode="&#x201d;" d="M143 1284v352h316v-299q0 -41 -11.5 -78.5t-38 -76.5t-44 -60.5t-54.5 -62.5h-166q7 8 30.5 32.5t33 35t28 33.5t27.5 39.5t19 39t14 45.5h-154zM565 1284v352h316v-299q0 -41 -11.5 -78.5t-38 -76.5t-44 -60.5t-54.5 -62.5h-166q7 8 30.5 32.5t33 35t28 33.5t27.5 39.5 t19 39t14 45.5h-154z" />
<glyph unicode="&#x201e;" d="M143 0v352h316v-299q0 -41 -11.5 -78.5t-38 -76.5t-44 -60.5t-54.5 -62.5h-166q7 8 30.5 32.5t33 35t28 33.5t27.5 39.5t19 39t14 45.5h-154zM565 0v352h316v-299q0 -41 -11.5 -78.5t-38 -76.5t-44 -60.5t-54.5 -62.5h-166q7 8 30.5 32.5t33 35t28 33.5t27.5 39.5t19 39 t14 45.5h-154z" />
<glyph unicode="&#x2022;" d="M102 819q0 170 120.5 290t289.5 120t289.5 -120t120.5 -290t-120.5 -289.5t-289.5 -119.5t-289.5 119.5t-120.5 289.5z" />
<glyph unicode="&#x2026;" horiz-adv-x="2048" d="M172 0v377h340v-377h-340zM854 0v377h340v-377h-340zM1536 0v377h340v-377h-340z" />
<glyph unicode="&#x202f;" horiz-adv-x="405" />
<glyph unicode="&#x2039;" horiz-adv-x="681" d="M104 680l207 289h267l-213 -289l206 -297h-266z" />
<glyph unicode="&#x203a;" horiz-adv-x="681" d="M104 969h267l207 -289l-203 -297h-266l206 297z" />
<glyph unicode="&#x205f;" horiz-adv-x="507" />
<glyph unicode="&#x20ac;" d="M-20 549l61 180h102v160h-163l61 180h102v94q0 221 121 344q125 129 350 129q148 0 246 -41q93 -37 144 -110l-103 -285q-26 74 -102 121q-59 37 -142 37q-89 0 -127 -62q-22 -37 -22 -133v-94h356l-61 -180h-295v-160h256l-62 -180h-194v-103q0 -31 0.5 -45t8 -43.5 t22.5 -50.5q39 -55 118 -55q83 0 170 41q70 33 156 108v-319q-61 -48 -143 -74q-116 -35 -226 -35q-200 0 -325 111q-146 132 -146 362v103h-163z" />
<glyph unicode="&#x2122;" horiz-adv-x="2048" d="M123 1444v192h706v-192h-225v-651h-254v651h-227zM913 793v843h324l182 -489l183 489h323v-843h-229v553h-4l-183 -553h-180l-182 553h-4v-553h-230z" />
<glyph unicode="&#xe000;" horiz-adv-x="1310" d="M0 0v1311h1311v-1311h-1311z" />
<glyph unicode="&#xfb01;" d="M0 1040v254h84v95q0 49 8.5 87t22 64t37 44t46.5 28t58 15.5t64 7t71 1.5h133v-229h-35q-37 0 -51 -16.5t-14 -49.5v-47h100v-254h-88v-1040h-352v1040h-84zM588 0v1309h352v-1309h-352zM588 1395v241h352v-241h-352z" />
<glyph unicode="&#xfb02;" d="M0 1040v254h84v95q0 49 8.5 87t22 64t37 44t46.5 28t58 15.5t64 7t71 1.5h133v-229h-35q-37 0 -51 -16.5t-14 -49.5v-47h100v-254h-88v-1040h-352v1040h-84zM588 0v1636h352v-1636h-352z" />
</font>
</defs>
</svg>
